<svg version="1.1" id="Layer_1" xmlns="http://www.w3.org/2000/svg" xmlns:xlink="http://www.w3.org/1999/xlink" x="0px" y="0px"
	 width="100%" viewBox="0 0 500 500" enable-background="new 0 0 500 500" xml:space="preserve">
<path fill="#000000" opacity="1.000000" stroke="none" 
	d="
M360.000000,1.000000 
	C406.989471,1.000000 453.978973,1.000000 500.984222,1.000000 
	C500.984222,167.618835 500.984222,334.237671 500.984222,500.928253 
	C334.418518,500.928253 167.836975,500.928253 1.127721,500.928253 
	C1.127721,334.455872 1.127721,167.911636 1.127721,1.000000 
	C97.022331,1.000000 193.045135,1.000000 289.539032,1.468635 
	C290.014435,57.411110 289.997345,112.884972 290.031036,168.358795 
	C290.051086,201.341156 290.151001,234.323502 290.024780,267.571411 
	C286.143066,270.863556 282.591766,274.083984 278.730804,276.876312 
	C270.794067,282.616333 262.691681,288.127319 254.706604,293.289734 
	C254.825119,291.683014 254.954819,290.519196 254.955093,289.355347 
	C254.963852,252.027802 254.961304,214.700272 254.951523,177.372726 
	C254.951263,176.415207 254.851349,175.457733 254.785294,174.273941 
	C231.418472,174.273941 208.371292,174.273941 184.940033,174.273941 
	C184.940033,228.380005 184.940033,282.172943 184.641586,336.151855 
	C176.568542,340.278015 168.831909,344.295868 161.003036,348.125153 
	C157.188080,349.991119 153.201004,351.505249 149.141113,352.779419 
	C148.991928,349.049011 148.996277,345.717804 148.994568,342.386597 
	C148.985657,325.073517 148.975128,307.760437 148.965424,290.447357 
	C148.964447,288.709015 148.965286,286.970673 148.965286,285.285370 
	C125.529976,285.285370 102.957436,285.285370 79.985184,285.285370 
	C79.985184,289.034180 79.975052,292.497650 79.986786,295.961029 
	C80.082047,324.090729 80.181396,352.220428 79.997116,380.594238 
	C64.771835,385.359589 49.828945,389.880798 34.665428,394.468781 
	C35.144268,395.128143 35.336655,395.648956 35.707054,395.866241 
	C51.903282,405.367004 68.088287,414.888000 84.382965,424.217377 
	C85.527367,424.872589 87.563644,424.337646 89.070206,423.930573 
	C96.432281,421.941467 103.755302,419.807831 111.414398,417.866028 
	C123.867622,424.990204 135.998596,431.973694 149.197021,439.571686 
	C149.197021,427.067383 149.197021,416.025757 149.502090,404.803528 
	C153.122818,403.246765 156.416504,401.814606 159.758438,400.505463 
	C168.131973,397.225250 176.527359,394.000793 184.991302,391.235596 
	C185.045395,412.678223 185.097336,433.639862 184.934784,454.599823 
	C184.902725,458.734924 186.272156,461.208221 190.017166,463.227051 
	C199.078934,468.112000 207.799606,473.628174 216.838791,478.557953 
	C218.456528,479.440277 221.352570,479.493958 222.959702,478.630249 
	C232.175476,473.677490 241.118408,468.219513 250.291153,463.182861 
	C253.445633,461.450775 254.914978,459.235260 254.909363,455.686127 
	C254.856262,422.083221 254.857346,388.480225 255.035034,354.582153 
	C259.882812,351.528687 264.566437,348.816437 269.187378,346.001160 
	C276.174286,341.744476 283.117432,337.416077 290.112122,333.576630 
	C290.145020,368.961823 290.145020,403.888550 290.145020,439.298309 
	C291.971588,438.706512 292.482758,438.632202 292.899109,438.392883 
	C314.223541,426.134583 335.577332,413.925903 356.782043,401.463623 
	C358.379791,400.524628 359.658386,397.820282 359.795502,395.846985 
	C360.209961,389.882843 360.020569,383.874481 360.009888,377.883453 
	C359.951294,344.932190 359.875793,311.980957 359.940002,278.709778 
	C363.352570,275.367432 366.796387,272.503754 369.881775,269.295410 
	C384.133118,254.475998 399.007629,240.173538 412.280762,224.517487 
	C427.306854,206.793777 441.091583,187.993744 454.957611,169.321243 
	C461.177399,160.945374 466.281738,151.741150 471.998932,142.744965 
	C480.121124,146.987396 488.085114,151.147171 497.183350,155.899414 
	C496.648407,150.557785 496.067535,146.671295 495.905579,142.767426 
	C495.485901,132.650879 495.196716,122.528000 494.953979,112.405281 
	C494.535614,94.958847 494.263641,77.508614 493.773010,60.064396 
	C493.627106,54.876125 492.955139,49.702652 492.476410,43.947540 
	C460.734680,63.602036 429.629059,82.862640 397.904480,102.506523 
	C407.299225,107.644623 415.956970,112.379639 424.644440,117.130905 
	C421.944489,121.429062 420.123718,124.782303 417.880951,127.824448 
	C402.735779,148.368149 387.618988,168.935165 372.207001,189.277939 
	C368.668243,193.948914 364.015472,197.775925 359.862183,201.523087 
	C359.912720,199.060699 360.032104,197.066544 360.032013,195.072388 
	C360.028442,130.381592 360.013336,65.690796 360.000000,1.000000 
z"/>
<path fill="#A6A6A6" opacity="1.000000" stroke="none" 
	d="
M359.531342,1.000000 
	C360.013336,65.690796 360.028442,130.381592 360.032013,195.072388 
	C360.032104,197.066544 359.912720,199.060699 359.649780,201.780396 
	C358.109314,204.379333 357.011414,206.501755 355.388824,208.087173 
	C341.002411,222.143845 326.718719,236.316071 311.983734,250.000870 
	C305.211548,256.290405 297.500397,261.568878 290.215027,267.305847 
	C290.151001,234.323502 290.051086,201.341156 290.031036,168.358795 
	C289.997345,112.884972 290.014435,57.411110 290.005066,1.468635 
	C313.020905,1.000000 336.041779,1.000000 359.531342,1.000000 
z"/>
<path fill="#ED1515" opacity="1.000000" stroke="none" 
	d="
M290.024811,267.571411 
	C297.500397,261.568878 305.211548,256.290405 311.983734,250.000870 
	C326.718719,236.316071 341.002411,222.143845 355.388824,208.087173 
	C357.011414,206.501755 358.109314,204.379333 359.662964,202.248627 
	C364.015472,197.775925 368.668243,193.948914 372.207001,189.277939 
	C387.618988,168.935165 402.735779,148.368149 417.880951,127.824448 
	C420.123718,124.782303 421.944489,121.429062 424.644440,117.130905 
	C415.956970,112.379639 407.299225,107.644623 397.904480,102.506523 
	C429.629059,82.862640 460.734680,63.602036 492.476410,43.947540 
	C492.955139,49.702652 493.627106,54.876125 493.773010,60.064396 
	C494.263641,77.508614 494.535614,94.958847 494.953979,112.405281 
	C495.196716,122.528000 495.485901,132.650879 495.905579,142.767426 
	C496.067535,146.671295 496.648407,150.557785 497.183350,155.899414 
	C488.085114,151.147171 480.121124,146.987396 471.998932,142.744965 
	C466.281738,151.741150 461.177399,160.945374 454.957611,169.321243 
	C441.091583,187.993744 427.306854,206.793777 412.280762,224.517487 
	C399.007629,240.173538 384.133118,254.475998 369.881775,269.295410 
	C366.796387,272.503754 363.352570,275.367432 359.631714,278.821136 
	C344.696533,290.905670 330.296722,302.677582 315.674316,314.166199 
	C307.330109,320.722107 298.622925,326.816132 290.079193,333.118134 
	C283.117432,337.416077 276.174286,341.744476 269.187378,346.001160 
	C264.566437,348.816437 259.882812,351.528687 254.695145,354.673615 
	C238.019363,363.520355 221.899139,372.025848 205.720856,380.419403 
	C198.847961,383.985168 191.853317,387.316284 184.913986,390.753967 
	C176.527359,394.000793 168.131973,397.225250 159.758438,400.505463 
	C156.416504,401.814606 153.122818,403.246765 149.100922,404.792267 
	C135.960480,409.216156 123.526306,413.470703 111.092133,417.725281 
	C103.755302,419.807831 96.432281,421.941467 89.070206,423.930573 
	C87.563644,424.337646 85.527367,424.872589 84.382965,424.217377 
	C68.088287,414.888000 51.903282,405.367004 35.707054,395.866241 
	C35.336655,395.648956 35.144268,395.128143 34.665428,394.468781 
	C49.828945,389.880798 64.771835,385.359589 80.372833,380.517090 
	C98.903313,373.585693 116.818390,367.087524 134.620865,360.294250 
	C139.679657,358.363861 144.410568,355.574219 149.291840,353.178650 
	C153.201004,351.505249 157.188080,349.991119 161.003036,348.125153 
	C168.831909,344.295868 176.568542,340.278015 184.995605,336.111694 
	C204.263535,325.059845 222.937286,314.332275 241.453720,303.339661 
	C246.113724,300.573151 250.269821,296.957855 254.657471,293.732605 
	C262.691681,288.127319 270.794067,282.616333 278.730804,276.876312 
	C282.591766,274.083984 286.143066,270.863556 290.024811,267.571411 
z"/>
<path fill="#A6A6A6" opacity="1.000000" stroke="none" 
	d="
M254.706619,293.289734 
	C250.269821,296.957855 246.113724,300.573151 241.453720,303.339661 
	C222.937286,314.332275 204.263535,325.059845 185.294037,335.925720 
	C184.940033,282.172943 184.940033,228.380005 184.940033,174.273941 
	C208.371292,174.273941 231.418472,174.273941 254.785294,174.273941 
	C254.851349,175.457733 254.951263,176.415207 254.951523,177.372726 
	C254.961304,214.700272 254.963852,252.027802 254.955093,289.355347 
	C254.954819,290.519196 254.825119,291.683014 254.706619,293.289734 
z"/>
<path fill="#A6A5A5" opacity="1.000000" stroke="none" 
	d="
M290.112122,333.576630 
	C298.622925,326.816132 307.330109,320.722107 315.674316,314.166199 
	C330.296722,302.677582 344.696533,290.905670 359.497864,279.141052 
	C359.875793,311.980957 359.951294,344.932190 360.009888,377.883453 
	C360.020569,383.874481 360.209961,389.882843 359.795502,395.846985 
	C359.658386,397.820282 358.379791,400.524628 356.782043,401.463623 
	C335.577332,413.925903 314.223541,426.134583 292.899109,438.392883 
	C292.482758,438.632202 291.971588,438.706512 290.145020,439.298309 
	C290.145020,403.888550 290.145020,368.961823 290.112122,333.576630 
z"/>
<path fill="#A6A5A5" opacity="1.000000" stroke="none" 
	d="
M184.991302,391.235596 
	C191.853317,387.316284 198.847961,383.985168 205.720856,380.419403 
	C221.899139,372.025848 238.019363,363.520355 254.502930,354.968689 
	C254.857346,388.480225 254.856262,422.083221 254.909363,455.686127 
	C254.914978,459.235260 253.445633,461.450775 250.291153,463.182861 
	C241.118408,468.219513 232.175476,473.677490 222.959702,478.630249 
	C221.352570,479.493958 218.456528,479.440277 216.838791,478.557953 
	C207.799606,473.628174 199.078934,468.112000 190.017166,463.227051 
	C186.272156,461.208221 184.902725,458.734924 184.934784,454.599823 
	C185.097336,433.639862 185.045395,412.678223 184.991302,391.235596 
z"/>
<path fill="#A7A5A5" opacity="1.000000" stroke="none" 
	d="
M149.141113,352.779419 
	C144.410568,355.574219 139.679657,358.363861 134.620865,360.294250 
	C116.818390,367.087524 98.903313,373.585693 80.655228,380.272980 
	C80.181396,352.220428 80.082047,324.090729 79.986786,295.961029 
	C79.975052,292.497650 79.985184,289.034180 79.985184,285.285370 
	C102.957436,285.285370 125.529976,285.285370 148.965286,285.285370 
	C148.965286,286.970673 148.964447,288.709015 148.965424,290.447357 
	C148.975128,307.760437 148.985657,325.073517 148.994568,342.386597 
	C148.996277,345.717804 148.991928,349.049011 149.141113,352.779419 
z"/>
<path fill="#A7A2A2" opacity="1.000000" stroke="none" 
	d="
M111.414391,417.865997 
	C123.526306,413.470703 135.960480,409.216156 148.795837,404.972839 
	C149.197021,416.025757 149.197021,427.067383 149.197021,439.571686 
	C135.998596,431.973694 123.867622,424.990204 111.414391,417.865997 
z"/>
</svg>