<?xml version="1.0" encoding="UTF-8"?>
<svg version="1.1" xmlns="http://www.w3.org/2000/svg" width="500" height="500">
<path d="M0 0 C23.1 0 46.2 0 70 0 C70.33 66 70.66 132 71 200 C77.93107436 192.43882797 84.63734258 184.99938872 91 177 C91.40653809 176.49307617 91.81307617 175.98615234 92.23193359 175.46386719 C104.94786137 159.5992797 116.81445835 143.24657544 127.67285156 126.05224609 C128.87365599 124.19537302 130.13955669 122.40831783 131.4296875 120.61328125 C132.20699219 119.31970703 132.20699219 119.31970703 133 118 C131.70634174 114.11902522 130.45539745 113.90356264 126.87109375 112.08203125 C125.31938477 111.28442383 125.31938477 111.28442383 123.73632812 110.47070312 C122.1034082 109.64989258 122.1034082 109.64989258 120.4375 108.8125 C119.34501953 108.25369141 118.25253906 107.69488281 117.12695312 107.11914062 C114.42230002 105.73728729 111.71332564 104.36472408 109 103 C109 102.01 109 101.02 109 100 C110.73046875 98.61230469 110.73046875 98.61230469 113.1875 97.171875 C114.55805542 96.35517334 114.55805542 96.35517334 115.95629883 95.52197266 C116.96072021 94.93722168 117.9651416 94.3524707 119 93.75 C121.12976964 92.48322129 123.25864952 91.21494567 125.38671875 89.9453125 C126.48677246 89.29208008 127.58682617 88.63884766 128.72021484 87.96582031 C133.79595819 84.92354806 138.80422433 81.77668766 143.8125 78.625 C150.24187943 74.58879031 156.68149723 70.57091874 163.15234375 66.6015625 C164.04425163 66.05424973 164.04425163 66.05424973 164.95417786 65.49588013 C167.8424267 63.7242906 170.73233812 61.95552282 173.62426758 60.18994141 C174.66091553 59.55491699 175.69756348 58.91989258 176.765625 58.265625 C177.68118164 57.70649414 178.59673828 57.14736328 179.54003906 56.57128906 C181.78247254 55.13894469 183.87826554 53.60237878 186 52 C188.34215592 50.59525304 190.68766716 49.22147843 193.0625 47.875 C193.68705078 47.51535156 194.31160156 47.15570313 194.95507812 46.78515625 C197.61422261 45.26969931 200.08836966 43.97054345 203 43 C203.72178941 49.51801291 204.19370111 55.99142249 204.38891602 62.54541016 C204.43302612 63.88894814 204.43302612 63.88894814 204.47802734 65.2596283 C204.57326249 68.18601158 204.66367709 71.11252095 204.75390625 74.0390625 C204.81947845 76.09069637 204.88531435 78.14232183 204.95140076 80.19393921 C205.08873297 84.47883943 205.22384414 88.76380164 205.35717773 93.04882812 C205.52768988 98.52732011 205.70228469 104.00567201 205.87835789 109.48398781 C206.01414714 113.71510375 206.14851948 117.94626368 206.2823925 122.17744064 C206.3463228 124.19716594 206.41051436 126.21688298 206.47497749 128.23659134 C206.56479842 131.06214765 206.65289483 133.88775247 206.74047852 136.71337891 C206.76695969 137.53852493 206.79344086 138.36367096 206.82072449 139.21382141 C206.97135911 144.1452089 207.02340207 149.06628054 207 154 C203.21004025 153.40345974 200.29643674 152.29932513 196.91796875 150.49609375 C195.98662109 150.00302734 195.05527344 149.50996094 194.09570312 149.00195312 C192.65614258 148.22754883 192.65614258 148.22754883 191.1875 147.4375 C190.20845703 146.91736328 189.22941406 146.39722656 188.22070312 145.86132812 C185.8106934 144.57990832 183.40399781 143.29265289 181 142 C180.69980957 142.76948975 180.39961914 143.53897949 180.09033203 144.33178711 C169.57009068 170.07646192 147.9682152 193.83052894 130.50585938 215.15332031 C129.14554303 216.8215163 127.79647059 218.49781882 126.453125 220.1796875 C122.39197635 225.23511737 118.2248719 229.96197742 113.53125 234.44140625 C111.90167459 235.94013391 111.90167459 235.94013391 111 238 C110.34 238 109.68 238 109 238 C108.72951843 238.59547134 108.45903687 239.19094269 108.18035889 239.80445862 C107.01048015 241.98050627 105.85474251 243.3930367 104.11425781 245.12866211 C103.53315247 245.71284409 102.95204712 246.29702606 102.35333252 246.89891052 C101.72626404 247.51879349 101.09919556 248.13867645 100.453125 248.77734375 C99.80430359 249.42570694 99.15548218 250.07407013 98.48699951 250.74208069 C97.11414044 252.11192197 95.73885503 253.47933526 94.36132812 254.84448242 C92.26639716 256.92124504 90.17949124 259.00580921 88.09375 261.09179688 C86.75567745 262.42495018 85.41715023 263.75764733 84.078125 265.08984375 C83.45915344 265.70770248 82.84018188 266.32556122 82.20245361 266.96214294 C81.60873962 267.54947708 81.01502563 268.13681122 80.40332031 268.74194336 C79.88972961 269.25172226 79.37613892 269.76150116 78.84698486 270.28672791 C77 272 77 272 73.8298645 273.97967529 C71.73676097 275.73052487 71.07379716 276.67680646 70.4598465 279.36559391 C70.25918829 282.45372717 70.25839426 285.48903719 70.31884766 288.58325195 C70.3179715 289.75441055 70.31709534 290.92556915 70.31619263 292.13221741 C70.32037128 296.00158483 70.36704222 299.86921682 70.4140625 303.73828125 C70.42525367 306.42159461 70.43408927 309.10481196 70.43978882 311.78813171 C70.45842103 318.12772211 70.50763485 324.46669004 70.56788576 330.80600661 C70.63500247 338.02476044 70.66795267 345.24354436 70.69805837 352.46253264 C70.76073621 367.3086915 70.86623861 382.15430462 71 397 C74.91770543 394.81435668 78.83396447 392.62613367 82.75 390.4375 C83.84183594 389.82841797 84.93367188 389.21933594 86.05859375 388.59179688 C88.27002098 387.35522958 90.47420477 386.10562366 92.67113781 384.84348488 C94.89176046 383.61373007 97.15758122 382.46232677 99.45975971 381.39301109 C105.42935848 378.62549701 105.42935848 378.62549701 109.04541588 373.44401932 C109.45932234 370.24922954 109.4501581 367.27567699 109.3112793 364.05712891 C109.30832855 362.87087418 109.30537781 361.68461945 109.30233765 360.4624176 C109.28418618 357.22222972 109.21362659 353.98812863 109.12227225 350.74934816 C109.04149891 347.349239 109.0363904 343.94911368 109.02534485 340.54818726 C108.98767213 332.63947811 108.86171165 324.73340581 108.72486877 316.82588959 C108.5541077 306.76866169 108.41874269 296.71177648 108.37221462 286.65315759 C108.35405961 283.27311531 108.31554406 279.89577214 108.23001671 276.51671219 C108.13929653 272.74438364 108.10293452 268.97490871 108.0769043 265.20166016 C108.01411537 263.54148109 108.01411537 263.54148109 107.95005798 261.84776306 C107.97076741 255.61128823 108.84561154 252.48733312 113.31941223 248.01083374 C114.87595896 246.66964232 116.43604904 245.33255001 118 244 C119.29822794 242.56599941 120.57428259 241.11112621 121.8125 239.625 C124.0100747 236.98791036 126.23355572 235.02727995 129 233 C129.07006911 252.60157698 129.12297789 272.20312857 129.15543652 291.8048048 C129.17090794 300.90612664 129.19200273 310.00737068 129.22631836 319.10864258 C129.25621228 327.04095601 129.275573 334.9732131 129.28226548 342.9055813 C129.28617776 347.10604693 129.29537785 351.30635137 129.31719017 355.50676537 C129.33755523 359.46051816 129.34383379 363.41404337 129.33932304 367.36784363 C129.34014824 368.81867014 129.34611391 370.26950427 129.35761642 371.72028542 C129.37255897 373.70219538 129.3671621 375.6842275 129.36076355 377.66618347 C129.36352893 378.77510043 129.36629431 379.88401739 129.36914349 381.0265379 C128.9490232 384.41061966 128.00541174 386.26681583 126 389 C123.68530273 390.70654297 123.68530273 390.70654297 120.93359375 392.2421875 C119.90411621 392.82556885 118.87463867 393.4089502 117.81396484 394.01000977 C116.69973145 394.62545654 115.58549805 395.24090332 114.4375 395.875 C113.26699461 396.5337506 112.09724737 397.19384996 110.92822266 397.85522461 C108.49820315 399.22858724 106.06502586 400.59608889 103.62939453 401.95947266 C98.01468399 405.10836784 92.44688695 408.33864783 86.875 411.5625 C85.79919678 412.18302246 84.72339355 412.80354492 83.61499023 413.44287109 C76.39708748 417.60660753 69.19468298 421.79629181 62 426 C44.09152374 436.46157659 26.11376099 446.80093513 8.09783936 457.07608032 C-0.97769617 462.25399607 -10.01820515 467.48936446 -19.03662109 472.76611328 C-27.6447603 477.80106263 -36.27989598 482.78821201 -44.92236328 487.76391602 C-45.93282715 488.34584717 -46.94329102 488.92777832 -47.984375 489.52734375 C-48.97630859 490.09308105 -49.96824219 490.65881836 -50.99023438 491.24169922 C-53.0666496 492.45473803 -55.11917629 493.70928578 -57.15039062 494.99658203 C-67.05683122 501.1811201 -67.05683122 501.1811201 -71.84472656 500.68017578 C-77.2632767 498.97015305 -82.04061797 495.85749439 -86.875 492.9375 C-88.11730226 492.20472183 -89.36064875 491.47371139 -90.60498047 490.74438477 C-93.1627464 489.24259476 -95.71515187 487.73226843 -98.26367188 486.21484375 C-103.84894803 482.89491932 -109.49029484 479.67252521 -115.125 476.4375 C-117.27384953 475.19732824 -119.42228699 473.9564422 -121.5703125 472.71484375 C-128.04510022 468.97348344 -134.52236343 465.23642517 -141 461.5 C-143.1666775 460.25001878 -145.33334417 459.00001879 -147.5 457.75 C-148.5725 457.13125 -149.645 456.5125 -150.75 455.875 C-160.5 450.25 -160.5 450.25 -163.74951172 448.37524414 C-165.91776264 447.1243552 -168.08605697 445.87354148 -170.25439453 444.62280273 C-175.64717915 441.51201665 -181.03922093 438.39995762 -186.4296875 435.28515625 C-196.37902427 429.53792537 -206.33484051 423.80322804 -216.31860352 418.1159668 C-226.90805112 412.08305276 -237.47807494 406.01749636 -248.00521851 399.87640381 C-249.2798343 399.13337952 -250.55522967 398.39169072 -251.83145142 397.65142822 C-253.60747051 396.62060905 -255.38029074 395.58449367 -257.15234375 394.546875 C-258.6681604 393.66273926 -258.6681604 393.66273926 -260.21459961 392.76074219 C-267.38638985 388.2272203 -267.38638985 388.2272203 -269 385 C-269.10477861 382.06349418 -269.14779333 379.1503444 -269.14717102 376.21330261 C-269.15084771 375.29223876 -269.1545244 374.3711749 -269.1583125 373.42220002 C-269.16937975 370.31686153 -269.1731983 367.21155646 -269.17700195 364.10620117 C-269.18326425 361.88744499 -269.18991084 359.66868987 -269.19691467 357.44993591 C-269.21434482 351.40859263 -269.22488166 345.36725728 -269.2331202 339.32589507 C-269.23826548 335.55453016 -269.24434138 331.78316774 -269.25063133 328.01180458 C-269.2675031 317.57273155 -269.28213855 307.13365968 -269.28938007 296.69457531 C-269.29129001 293.98510423 -269.29321033 291.27563316 -269.29516602 288.56616211 C-269.29564976 287.89272573 -269.2961335 287.21928934 -269.2966319 286.5254458 C-269.30493425 275.61340165 -269.33027447 264.70146705 -269.36274669 253.78947075 C-269.39580357 242.58983091 -269.41349468 231.39024471 -269.41702431 220.19054967 C-269.41937936 213.90089281 -269.428399 207.61140909 -269.45348549 201.32179832 C-269.47669812 195.40634007 -269.48102683 189.49116979 -269.47072411 183.57567787 C-269.47022699 181.40242685 -269.47659873 179.22916199 -269.49028015 177.05595398 C-269.50789329 174.09283681 -269.50094492 171.130765 -269.48774719 168.16764832 C-269.49871644 167.30422245 -269.50968568 166.44079658 -269.52098733 165.55120629 C-269.47774941 161.54042854 -269.32058204 159.50866386 -267.13473797 156.04041004 C-264.6900065 153.70370422 -262.28550124 152.14638971 -259.328125 150.50390625 C-258.20132324 149.87025146 -257.07452148 149.23659668 -255.91357422 148.58374023 C-254.69239025 147.90998001 -253.47119865 147.23623361 -252.25 146.5625 C-250.98254608 145.85287416 -249.71579035 145.14199997 -248.44970703 144.42993164 C-246.51277415 143.34063122 -244.57551579 142.25198229 -242.63613892 141.16703796 C-236.67292549 137.82987306 -230.76838977 134.39638331 -224.875 130.9375 C-213.37234377 124.2061035 -201.83075161 117.54343414 -190.28222656 110.89111328 C-184.85340062 107.76319854 -179.42677993 104.63146269 -174 101.5 C-167.47766725 97.73636081 -160.95486238 93.97355378 -154.4296875 90.21484375 C-142.95716783 83.60448718 -131.50027688 76.96888061 -120.06933594 70.28686523 C-114.74466599 67.17669787 -109.41307476 64.07898645 -104.0703125 61 C-103.48916687 60.66508545 -102.90802124 60.3301709 -102.30926514 59.98510742 C-99.50788817 58.37126114 -96.70559212 56.75903111 -93.90234375 55.1484375 C-92.88527344 54.56320313 -91.86820313 53.97796875 -90.8203125 53.375 C-89.84094727 52.81296875 -88.86158203 52.2509375 -87.85253906 51.671875 C-85.07162991 50.04198234 -82.34779157 48.33736089 -79.6171875 46.625 C-76.04466567 44.49959367 -73.26715953 42.87639952 -69 43 C-66.36195417 43.98372818 -64.13638699 44.98266908 -61.6875 46.3125 C-60.98947266 46.67714355 -60.29144531 47.04178711 -59.57226562 47.41748047 C-52.42041693 51.20271942 -45.47351199 55.335534 -38.53417969 59.49316406 C-32.3630137 63.16257027 -26.14166004 66.74751252 -19.93359375 70.35400391 C-18.94746094 70.92812012 -17.96132813 71.50223633 -16.9453125 72.09375 C-16.06375488 72.60615234 -15.18219727 73.11855469 -14.27392578 73.64648438 C-12.48377728 74.71203981 -10.73339063 75.84440624 -9 77 C-8.65942383 79.33837891 -8.65942383 79.33837891 -8.70703125 82.2265625 C-8.71669922 83.2578125 -8.72636719 84.2890625 -8.73632812 85.3515625 C-8.76146484 86.43179688 -8.78660156 87.51203125 -8.8125 88.625 C-8.82603516 89.71296875 -8.83957031 90.8009375 -8.85351562 91.921875 C-8.88895246 94.61507409 -8.93835669 97.30729374 -9 100 C-16.26339381 96.05958484 -23.49383539 92.06628878 -30.6875 88 C-32.14506714 87.17773926 -32.14506714 87.17773926 -33.63208008 86.33886719 C-39.00974666 83.29488876 -44.36178169 80.21217693 -49.6875 77.078125 C-50.77458252 76.43875 -51.86166504 75.799375 -52.98168945 75.140625 C-55.08453149 73.90047507 -57.18473108 72.65583123 -59.28198242 71.40625 C-60.23435791 70.84421875 -61.1867334 70.2821875 -62.16796875 69.703125 C-63.00610107 69.20458008 -63.8442334 68.70603516 -64.70776367 68.19238281 C-66.88696114 67.05880092 -68.56515792 66.2938442 -71 66 C-73.71934796 67.24687592 -76.18273477 68.55058452 -78.75 70.0625 C-79.53584473 70.51222168 -80.32168945 70.96194336 -81.13134766 71.42529297 C-83.76238516 72.93654458 -86.38171009 74.46677989 -89 76 C-90.84620081 77.07448229 -92.69255831 78.14869541 -94.5390625 79.22265625 C-97.4977065 80.94602374 -100.45487305 82.67179399 -103.40917969 84.40258789 C-111.24181941 88.9900488 -119.11291156 93.50717158 -127 98 C-136.72143706 103.53951839 -146.40895317 109.13375194 -156.06689453 114.78344727 C-166.59084625 120.93766742 -177.15380137 127.02369996 -187.71777344 133.10888672 C-193.14659939 136.23680147 -198.57321364 139.36854843 -204 142.5 C-210.13711687 146.04120203 -216.27437761 149.5821511 -222.4133606 153.12011719 C-224.80426597 154.49806938 -227.19498672 155.87634172 -229.58569336 157.25463867 C-231.26983963 158.22540982 -232.95425231 159.19571874 -234.63867188 160.16601562 C-236.17297852 161.05063477 -236.17297852 161.05063477 -237.73828125 161.953125 C-239.08466675 162.72897949 -239.08466675 162.72897949 -240.45825195 163.52050781 C-241.29702881 164.00874023 -242.13580566 164.49697266 -243 165 C-244.29573441 165.52961586 -244.29573441 165.52961586 -245.61764526 166.06993103 C-248.39331921 167.88647143 -248.39331921 167.88647143 -248.63923645 171.66059875 C-248.67160819 173.22694438 -248.67609628 174.79400432 -248.65942383 176.3605957 C-248.66985655 177.223359 -248.68028927 178.0861223 -248.69103813 178.97502995 C-248.71999261 181.87562496 -248.71328377 184.77506424 -248.70703125 187.67578125 C-248.72098124 189.74827607 -248.73713102 191.82075709 -248.75532532 193.89321899 C-248.79785271 199.52515739 -248.80869613 205.15671521 -248.81052399 210.78879929 C-248.81382378 216.67310587 -248.83244528 222.55736909 -248.84912109 228.44165039 C-248.8695335 235.77553318 -248.88733081 243.1093734 -248.89379883 250.44328308 C-248.91605054 265.33927702 -249.11445453 280.22089151 -249.47532654 295.11244202 C-249.67441584 303.34154607 -249.81591018 311.57132231 -249.94196796 319.80184078 C-250.03141845 325.41601783 -250.15138927 331.0260917 -250.3409729 336.6378479 C-250.5183896 341.91373948 -250.6155155 347.18516523 -250.65266991 352.46384811 C-250.6806656 354.39302772 -250.73809653 356.32204921 -250.82775307 358.24934769 C-251.29766994 366.8435375 -251.29766994 366.8435375 -249 375 C-243.99098225 380.42517363 -236.26290184 384.73977515 -228.84671021 385.19248962 C-226.32546439 384.78423843 -224.32590229 384.04604071 -222 383 C-220.35778661 382.44745559 -218.71197574 381.9054714 -217.0625 381.375 C-216.35222656 381.11460937 -215.64195312 380.85421875 -214.91015625 380.5859375 C-213 380 -213 380 -210 380 C-210 348.32 -210 316.64 -210 284 C-187.23 284 -164.46 284 -141 284 C-140.814375 294.663125 -140.62875 305.32625 -140.4375 316.3125 C-140.37618896 319.67864502 -140.31487793 323.04479004 -140.25170898 326.51293945 C-140.20775543 329.17137989 -140.1641902 331.82982678 -140.12109375 334.48828125 C-140.10772476 335.17955612 -140.09435577 335.87083099 -140.08058167 336.58305359 C-140.04160081 338.61949052 -140.00979843 340.65606098 -139.97827148 342.69262695 C-139.94829323 344.41471123 -139.94829323 344.41471123 -139.91770935 346.17158508 C-140 349 -140 349 -141 352 C-137.41577627 350.29353049 -133.83279492 348.58446705 -130.25 346.875 C-129.25355469 346.400625 -128.25710937 345.92625 -127.23046875 345.4375 C-126.23144531 344.96054687 -125.23242188 344.48359375 -124.203125 343.9921875 C-123.30239258 343.56276855 -122.40166016 343.13334961 -121.47363281 342.69091797 C-116.29477926 340.16992136 -111.15177235 337.57588618 -106 335 C-105.505 254.81 -105.505 254.81 -105 173 C-81.9 173 -58.8 173 -35 173 C-34.67 212.27 -34.34 251.54 -34 292 C-24.595 285.07 -24.595 285.07 -15 278 C-12.33279877 276.42751999 -9.66559753 274.85503998 -6.91757202 273.23490906 C-2.47459255 269.66199045 -0.75147953 267.39766917 0.23313522 261.77445412 C0.95017468 254.93358709 0.799171 248.10877459 0.68115234 241.24145508 C0.68707061 238.60909831 0.69853301 235.9773061 0.71690369 233.34506226 C0.74536744 227.69248801 0.72302656 222.04198549 0.66541672 216.38965797 C0.5822031 208.21792341 0.57678842 200.04756543 0.5898921 191.87548491 C0.60906312 178.61506208 0.56598903 165.35560992 0.48339844 152.09545898 C0.4033405 139.22039687 0.35282931 126.34577327 0.34179688 113.47045898 C0.34110574 112.67582112 0.34041461 111.88118326 0.33970253 111.06246547 C0.33641648 107.07569567 0.3337086 103.08892573 0.3312881 99.10215533 C0.31048458 66.06737217 0.17697537 33.03440739 0 0 Z M-8.625 336.9375 C-14.50049068 340.77442748 -20.41346014 344.52530515 -26.4375 348.125 C-27.06930176 348.50261475 -27.70110352 348.88022949 -28.35205078 349.26928711 C-30.54310636 350.57103901 -32.71966292 351.85983146 -35 353 C-35 387.98 -35 422.96 -35 459 C-27.25911336 454.77769819 -19.55022882 450.52459773 -11.875 446.1875 C-10.83601563 445.60291016 -9.79703125 445.01832031 -8.7265625 444.41601562 C-7.74171875 443.85978516 -6.756875 443.30355469 -5.7421875 442.73046875 C-4.40969971 441.97866333 -4.40969971 441.97866333 -3.05029297 441.21166992 C-1.07775341 440.16075155 -1.07775341 440.16075155 0 439 C0.09543095 437.60856311 0.12188575 436.21231633 0.12025452 434.81761169 C0.12162918 433.91592255 0.12300385 433.0142334 0.12442017 432.08522034 C0.12082489 431.08828659 0.11722961 430.09135284 0.11352539 429.06420898 C0.11367142 428.02043091 0.11381744 426.97665283 0.1139679 425.90124512 C0.11326826 422.43284057 0.10547353 418.96448897 0.09765625 415.49609375 C0.09579225 413.09855682 0.09436826 410.7010195 0.09336853 408.30348206 C0.08954194 401.97904416 0.07971046 395.65462906 0.06866455 389.3302002 C0.05845345 382.88224598 0.05387156 376.43428809 0.04882812 369.98632812 C0.03808832 357.324209 0.02120119 344.66210571 0 332 C-2.7169312 332 -6.30449421 335.41061977 -8.625 336.9375 Z M-115.2578125 392.703125 C-115.96146942 392.98218689 -116.66512634 393.26124878 -117.3901062 393.54876709 C-118.87567259 394.14104809 -120.36003346 394.73636046 -121.84326172 395.33447266 C-124.11773909 396.24708663 -126.40020351 397.13730864 -128.68359375 398.02734375 C-130.12554759 398.60540676 -131.5669731 399.18478978 -133.0078125 399.765625 C-133.69320099 400.02933899 -134.37858948 400.29305298 -135.08474731 400.5647583 C-138.62056391 401.92510531 -138.62056391 401.92510531 -140.90234375 404.77148438 C-140.93457031 405.50689453 -140.96679688 406.24230469 -141 407 C-141.10554199 408.04704102 -141.21108398 409.09408203 -141.31982422 410.17285156 C-141.52909177 413.48545678 -141.68520144 416.78984335 -141.78955078 420.10693359 C-141.8462806 421.52971741 -141.92813461 422.95173216 -142.03564453 424.37158203 C-142.38781836 429.12206474 -142.38721762 433.37853905 -141 438 C-137.18488013 441.78288767 -132.83677468 443.76018211 -128 446 C-125.97002734 447.18407119 -123.953411 448.39144032 -121.953125 449.625 C-120.05280187 450.7512133 -118.15176788 451.87622807 -116.25 453 C-115.26773438 453.58394531 -114.28546875 454.16789062 -113.2734375 454.76953125 C-112.34273437 455.31996094 -111.41203125 455.87039063 -110.453125 456.4375 C-109.61942383 456.93121094 -108.78572266 457.42492187 -107.92675781 457.93359375 C-106.22120912 459.0807082 -106.22120912 459.0807082 -105 459 C-105 436.23 -105 413.46 -105 390 C-108.80547976 390 -111.77880552 391.31522465 -115.2578125 392.703125 Z " fill="#EE1414" transform="translate(289,0)"/>
<path d="M0 0 C23.1 0 46.2 0 70 0 C70.1580326 26.19937386 70.28697209 52.39836166 70.3626852 78.59809113 C70.39877497 90.76315884 70.44797574 102.92790933 70.52807617 115.09277344 C70.597861 125.69606282 70.64301113 136.29912245 70.65861946 146.9026351 C70.66774293 152.51690709 70.68917416 158.13052185 70.7401104 163.74458313 C70.78768143 169.0306488 70.80226909 174.31578757 70.79175377 179.60204697 C70.79367697 181.54025691 70.80756761 183.47849836 70.83443832 185.41652298 C71.05161066 201.89018714 71.05161066 201.89018714 66.66418457 206.99375916 C65.47357106 208.03222425 64.25239553 209.03694458 63 210 C61.84496067 211.1695344 60.7024667 212.35172091 59.57836914 213.55102539 C58.39996691 214.73589583 57.21880877 215.91803068 56.03515625 217.09765625 C55.07965126 218.05459633 55.07965126 218.05459633 54.10484314 219.03086853 C52.7691207 220.36726574 51.43215765 221.70242405 50.09399414 223.03637695 C48.0673702 225.05764268 46.04614453 227.08419574 44.02539062 229.11132812 C37.85222582 235.28763052 31.67621197 241.36289537 25 247 C23.41360711 248.45500452 21.82980244 249.91284242 20.25 251.375 C6.40974114 263.86341962 6.40974114 263.86341962 0 266 C0 178.22 0 90.44 0 0 Z " fill="#A6A5A5" transform="translate(289,0)"/>
<path d="M0 0 C1.71053176 1.00163173 3.42106628 2.00325881 5.13179016 3.00456238 C6.89197812 4.03662413 8.6498437 5.07254509 10.40722656 6.109375 C13.88573897 8.15999808 17.37528653 10.19100221 20.8671875 12.21875 C29.33113207 17.13585128 29.33113207 17.13585128 33.30859375 19.45703125 C34.5450061 20.17789917 34.5450061 20.17789917 35.80639648 20.91333008 C37.54779285 21.95449718 39.24934188 23.06206125 40.9375 24.1875 C41.27807617 26.52587891 41.27807617 26.52587891 41.23046875 29.4140625 C41.22080078 30.4453125 41.21113281 31.4765625 41.20117188 32.5390625 C41.17603516 33.61929688 41.15089844 34.69953125 41.125 35.8125 C41.11146484 36.90046875 41.09792969 37.9884375 41.08398438 39.109375 C41.04854754 41.80257409 40.99914331 44.49479374 40.9375 47.1875 C33.67410619 43.24708484 26.44366461 39.25378878 19.25 35.1875 C17.79243286 34.36523926 17.79243286 34.36523926 16.30541992 33.52636719 C10.92775334 30.48238876 5.57571831 27.39967693 0.25 24.265625 C-0.83708252 23.62625 -1.92416504 22.986875 -3.04418945 22.328125 C-5.14703149 21.08797507 -7.24723108 19.84333123 -9.34448242 18.59375 C-10.29685791 18.03171875 -11.2492334 17.4696875 -12.23046875 16.890625 C-13.06860107 16.39208008 -13.9067334 15.89353516 -14.77026367 15.37988281 C-16.94946114 14.24630092 -18.62765792 13.4813442 -21.0625 13.1875 C-23.78184796 14.43437592 -26.24523477 15.73808452 -28.8125 17.25 C-29.59834473 17.69972168 -30.38418945 18.14944336 -31.19384766 18.61279297 C-33.82488516 20.12404458 -36.44421009 21.65427989 -39.0625 23.1875 C-40.90870081 24.26198229 -42.75505831 25.33619541 -44.6015625 26.41015625 C-47.5602065 28.13352374 -50.51737305 29.85929399 -53.47167969 31.59008789 C-61.30431941 36.1775488 -69.17541156 40.69467158 -77.0625 45.1875 C-86.78393706 50.72701839 -96.47145317 56.32125194 -106.12939453 61.97094727 C-116.65334625 68.12516742 -127.21630137 74.21119996 -137.78027344 80.29638672 C-143.20909939 83.42430147 -148.63571364 86.55604843 -154.0625 89.6875 C-160.19961687 93.22870203 -166.33687761 96.7696511 -172.4758606 100.30761719 C-174.86676597 101.68556938 -177.25748672 103.06384172 -179.64819336 104.44213867 C-181.33233963 105.41290982 -183.01675231 106.38321874 -184.70117188 107.35351562 C-185.72404297 107.94326172 -186.74691406 108.53300781 -187.80078125 109.140625 C-188.69837158 109.65786133 -189.59596191 110.17509766 -190.52075195 110.70800781 C-191.35952881 111.19624023 -192.19830566 111.68447266 -193.0625 112.1875 C-193.92632294 112.54057724 -194.79014587 112.89365448 -195.68014526 113.25743103 C-198.45581921 115.07397143 -198.45581921 115.07397143 -198.70173645 118.84809875 C-198.73410887 120.41444436 -198.73859689 121.98150432 -198.72192383 123.5480957 C-198.73235372 124.41086184 -198.7427836 125.27362797 -198.75352955 126.16253853 C-198.78247693 129.06313022 -198.7757673 131.9625676 -198.76953125 134.86328125 C-198.7835237 136.93573036 -198.79971932 139.00816561 -198.81796265 141.08058167 C-198.86059546 146.71249928 -198.87151489 152.3440329 -198.87322617 157.97609711 C-198.87618856 163.86120091 -198.89372581 169.74626635 -198.90942383 175.63134766 C-198.92879938 182.96600919 -198.94580405 190.30062898 -198.95176697 197.63531494 C-198.97383413 212.52193931 -199.1826024 227.39249138 -199.56361389 242.27415466 C-199.77377245 250.49450278 -199.92308797 258.71560393 -200.05628109 266.93752766 C-200.15083538 272.54411217 -200.27781283 278.14605686 -200.47891235 283.74990845 C-200.66720246 289.0193818 -200.770284 294.28385228 -200.81004715 299.55647087 C-200.83984092 301.48212021 -200.90077721 303.40759251 -200.99598312 305.33111763 C-201.49280575 314.00320763 -201.49280575 314.00320763 -199.0625 322.1875 C-194.07490916 327.30014411 -187.55635628 330.39936123 -181.0625 333.1875 C-185.36580736 336.05637157 -189.98548746 337.06087875 -194.9375 338.4375 C-195.93136719 338.73140625 -196.92523438 339.0253125 -197.94921875 339.328125 C-199.39361328 339.7303125 -199.39361328 339.7303125 -200.8671875 340.140625 C-201.74358887 340.38973633 -202.61999023 340.63884766 -203.52294922 340.89550781 C-208.82835602 341.50551229 -212.93909886 338.21132751 -217.0625 335.1875 C-219.69390032 331.24039952 -219.3462869 327.86166725 -219.32992554 323.2805481 C-219.33672221 321.89767068 -219.33672221 321.89767068 -219.34365618 320.48685634 C-219.35635926 317.38457915 -219.35467601 314.28247618 -219.35302734 311.18017578 C-219.3590089 308.96127088 -219.36581358 306.74236807 -219.37338257 304.52346802 C-219.39108757 298.48630132 -219.39573984 292.44919128 -219.39701414 286.41200113 C-219.39891046 281.37704074 -219.40626491 276.34209362 -219.41335833 271.30713832 C-219.42872533 260.10966617 -219.43469471 248.91222086 -219.43334763 237.71474136 C-219.43326772 237.04269019 -219.4331878 236.37063902 -219.43310547 235.67822266 C-219.43302371 235.00535177 -219.43294195 234.33248089 -219.43285771 233.63921998 C-219.43204476 222.73369905 -219.45118377 211.82831623 -219.4793822 200.92283525 C-219.50810144 189.72768031 -219.52155663 178.53257597 -219.52019465 167.33737934 C-219.51968397 161.05110109 -219.5254255 154.76497908 -219.54655075 148.47873306 C-219.56587304 142.56735166 -219.56609871 136.65627651 -219.55151749 130.74488449 C-219.54942083 128.57325037 -219.55418097 126.40159739 -219.5662384 124.22999573 C-219.58161546 121.26910696 -219.57243245 118.30928409 -219.55697632 115.34841919 C-219.56726344 114.48567544 -219.57755057 113.62293169 -219.58814943 112.73404419 C-219.54179472 108.72556741 -219.38199992 106.69426057 -217.1968174 103.22833061 C-214.75238996 100.89097331 -212.34819632 99.33399806 -209.390625 97.69140625 C-208.26382324 97.05775146 -207.13702148 96.42409668 -205.97607422 95.77124023 C-204.75489025 95.09748001 -203.53369865 94.42373361 -202.3125 93.75 C-201.04504608 93.04037416 -199.77829035 92.32949997 -198.51220703 91.61743164 C-196.57527415 90.52813122 -194.63801579 89.43948229 -192.69863892 88.35453796 C-186.73542549 85.01737306 -180.83088977 81.58388331 -174.9375 78.125 C-163.43484377 71.3936035 -151.89325161 64.73093414 -140.34472656 58.07861328 C-134.91590062 54.95069854 -129.48927993 51.81896269 -124.0625 48.6875 C-117.54016725 44.92386081 -111.01736238 41.16105378 -104.4921875 37.40234375 C-93.01966783 30.79198718 -81.56277688 24.15638061 -70.13183594 17.47436523 C-64.80716599 14.36419787 -59.47557476 11.26648645 -54.1328125 8.1875 C-53.55166687 7.85258545 -52.97052124 7.5176709 -52.37176514 7.17260742 C-49.57038817 5.55876114 -46.76809212 3.94653111 -43.96484375 2.3359375 C-42.94777344 1.75070313 -41.93070313 1.16546875 -40.8828125 0.5625 C-39.90602539 0.00046875 -38.92923828 -0.5615625 -37.92285156 -1.140625 C-34.3154924 -3.24912582 -30.7587299 -5.43588413 -27.21435547 -7.6484375 C-17.81566031 -12.73273277 -8.0738718 -4.79228457 0 0 Z " fill="#000000" transform="translate(239.0625,52.8125)"/>
<path d="M0 0 C23.1 0 46.2 0 70 0 C70.12049101 29.28823952 70.12049101 29.28823952 70.1507616 43.74372959 C70.16739286 51.56512977 70.1885151 59.38643409 70.22631836 67.20776367 C70.25942779 74.06123108 70.27684605 80.91459463 70.28463173 87.76813698 C70.29018125 90.38485155 70.30101786 93.00156034 70.31719017 95.61823082 C70.33891912 99.27906002 70.34196875 102.93945864 70.34057617 106.6003418 C70.351362 107.68575256 70.36214783 108.77116333 70.3732605 109.88946533 C70.33540956 119.06533573 70.33540956 119.06533573 67 123 C65.02978516 124.6340332 65.02978516 124.6340332 62.7890625 126.05078125 C61.550354 126.84488403 61.550354 126.84488403 60.28662109 127.6550293 C58.96911865 128.47547729 58.96911865 128.47547729 57.625 129.3125 C56.26689209 130.17452026 56.26689209 130.17452026 54.88134766 131.05395508 C52.26063427 132.71308656 49.63109394 134.35740071 47 136 C45.80670416 136.75688704 44.61390292 137.51455518 43.421875 138.2734375 C35.93054036 142.97953234 28.22282051 147.26407708 20.47265625 151.5234375 C17.56645861 153.12369748 14.67907615 154.75058827 11.80859375 156.4140625 C11.1633374 156.78789062 10.51808105 157.16171875 9.85327148 157.546875 C8.10860099 158.5618223 6.36670568 159.58153579 4.625 160.6015625 C2 162 2 162 0 162 C0 108.54 0 55.08 0 0 Z " fill="#A6A6A6" transform="translate(184,173)"/>
<path d="M0 0 C0.07006911 19.60157698 0.12297789 39.20312857 0.15543652 58.8048048 C0.17090794 67.90612664 0.19200273 77.00737068 0.22631836 86.10864258 C0.25621228 94.04095601 0.275573 101.9732131 0.28226548 109.9055813 C0.28617776 114.10604693 0.29537785 118.30635137 0.31719017 122.50676537 C0.33755523 126.46051816 0.34383379 130.41404337 0.33932304 134.36784363 C0.34014824 135.81867014 0.34611391 137.26950427 0.35761642 138.72028542 C0.37255897 140.70219538 0.3671621 142.6842275 0.36076355 144.66618347 C0.36352893 145.77510043 0.36629431 146.88401739 0.36914349 148.0265379 C-0.0509768 151.41061966 -0.99458826 153.26681583 -3 156 C-5.31469727 157.70654297 -5.31469727 157.70654297 -8.06640625 159.2421875 C-9.09588379 159.82556885 -10.12536133 160.4089502 -11.18603516 161.01000977 C-12.30026855 161.62545654 -13.41450195 162.24090332 -14.5625 162.875 C-15.73300539 163.5337506 -16.90275263 164.19384996 -18.07177734 164.85522461 C-20.50179685 166.22858724 -22.93497414 167.59608889 -25.37060547 168.95947266 C-30.98531601 172.10836784 -36.55311305 175.33864783 -42.125 178.5625 C-43.20080322 179.18302246 -44.27660645 179.80354492 -45.38500977 180.44287109 C-52.60291252 184.60660753 -59.80531702 188.79629181 -67 193 C-84.90847626 203.46157659 -102.88623901 213.80093513 -120.90216064 224.07608032 C-129.97769617 229.25399607 -139.01820515 234.48936446 -148.03662109 239.76611328 C-156.6447603 244.80106263 -165.27989598 249.78821201 -173.92236328 254.76391602 C-174.93282715 255.34584717 -175.94329102 255.92777832 -176.984375 256.52734375 C-177.97630859 257.09308105 -178.96824219 257.65881836 -179.99023438 258.24169922 C-182.0666496 259.45473803 -184.11917629 260.70928578 -186.15039062 261.99658203 C-196.05683122 268.1811201 -196.05683122 268.1811201 -200.84472656 267.68017578 C-206.2632767 265.97015305 -211.04061797 262.85749439 -215.875 259.9375 C-217.11730226 259.20472183 -218.36064875 258.47371139 -219.60498047 257.74438477 C-222.1627464 256.24259476 -224.71515187 254.73226843 -227.26367188 253.21484375 C-232.84894803 249.89491932 -238.49029484 246.67252521 -244.125 243.4375 C-246.27384953 242.19732824 -248.42228699 240.9564422 -250.5703125 239.71484375 C-255.96093636 236.59995149 -261.35312484 233.48778333 -266.74609375 230.37695312 C-269.99496496 228.50290437 -273.24357632 226.62840572 -276.4921875 224.75390625 C-280.85065388 222.23930564 -285.21012191 219.72645339 -289.5703125 217.21484375 C-304.07491223 208.85741101 -318.54958134 200.45075616 -333 192 C-332 190 -332 190 -330.14575195 189.22216797 C-327.53697243 188.43114771 -324.92837361 187.64232293 -322.3125 186.875 C-321.41337891 186.59785156 -320.51425781 186.32070313 -319.58789062 186.03515625 C-308.69499929 182.79046521 -308.69499929 182.79046521 -304.20922852 184.80371094 C-302.12801735 185.94208892 -300.1294936 187.16902055 -298.125 188.4375 C-296.61545672 189.35950439 -295.10501779 190.28004375 -293.59375 191.19921875 C-292.830625 191.66763184 -292.0675 192.13604492 -291.28125 192.61865234 C-287.77371371 194.74254365 -284.20481579 196.75110262 -280.625 198.75 C-280.02059082 199.0895874 -279.41618164 199.4291748 -278.79345703 199.77905273 C-276.04296561 201.31987492 -273.28568662 202.84557783 -270.51220703 204.34472656 C-262.36780271 208.74718644 -254.39816181 213.42232519 -246.43359375 218.140625 C-245.41652344 218.73875 -244.39945312 219.336875 -243.3515625 219.953125 C-242.44229004 220.49098633 -241.53301758 221.02884766 -240.59619141 221.58300781 C-238.04686925 223.05135506 -238.04686925 223.05135506 -235.35302734 224.00292969 C-232.86885718 225.05557037 -231.85711762 226.0959295 -230 228 C-228.06997599 229.21417782 -226.10682522 230.3762586 -224.125 231.50390625 C-223.5592627 231.82785873 -222.99352539 232.15181122 -222.41064453 232.48558044 C-220.60964682 233.51576666 -218.80500699 234.5393577 -217 235.5625 C-215.19575936 236.59050317 -213.39230022 237.6198571 -211.58935547 238.65013123 C-209.95417539 239.58370274 -208.31698118 240.5137438 -206.6796875 241.44360352 C-204.74810455 242.56549139 -202.85859347 243.76093768 -201 245 C-195.9475942 244.79827055 -191.71401557 241.82691672 -187.4375 239.375 C-186.64408203 238.92640625 -185.85066406 238.4778125 -185.03320312 238.015625 C-182.68454206 236.6844001 -180.34179356 235.34325971 -178 234 C-176.74091086 233.28380944 -175.48179874 232.56765926 -174.22265625 231.8515625 C-168.77995234 228.87012143 -168.77995234 228.87012143 -164 225 C-162.36856952 224.05012343 -160.71368311 223.14023668 -159.046875 222.25390625 C-153.40422706 219.22240558 -147.82133981 216.09774464 -142.25 212.9375 C-140.22008865 211.78769585 -138.19013969 210.63795811 -136.16015625 209.48828125 C-135.1355127 208.90771973 -134.11086914 208.3271582 -133.05517578 207.72900391 C-130.14161417 206.08014317 -127.2256586 204.43562222 -124.30859375 202.79296875 C-105.16167833 192.00670104 -86.10948342 181.06062846 -67.20483398 169.85473633 C-60.31809718 165.77335876 -53.41421515 161.72214918 -46.5 157.6875 C-45.55753418 157.13698975 -44.61506836 156.58647949 -43.64404297 156.01928711 C-42.71994629 155.48053955 -41.79584961 154.94179199 -40.84375 154.38671875 C-39.97204666 153.84582108 -39.10034332 153.3049234 -38.20222473 152.74763489 C-35 151 -35 151 -31.41145325 149.88153076 C-27.06244975 148.25535463 -23.74668324 146.84221555 -21 143 C-18.51998591 134.93679093 -19.403573 125.97238449 -19.67493987 117.64795423 C-19.7683749 114.25062622 -19.77450991 110.85324043 -19.78791809 107.45481873 C-19.82898597 100.28731393 -19.95434051 93.12319885 -20.09973145 85.95715332 C-20.31839941 75.17637323 -20.4790854 64.39529983 -20.54644471 53.61248726 C-20.57029821 50.23568725 -20.61532392 46.86178985 -20.70885277 43.48614693 C-20.80901735 39.71883749 -20.85513645 35.95417759 -20.89135742 32.18579102 C-20.9363588 31.08057602 -20.98136017 29.97536102 -21.02772522 28.83665466 C-21.02439206 22.60381981 -20.15619193 19.4874651 -15.68647766 15.01182556 C-14.12915156 13.66892505 -12.5671166 12.33146233 -11 11 C-9.68259036 9.56487954 -8.38609078 8.10985317 -7.125 6.625 C-1.48148148 0 -1.48148148 0 0 0 Z " fill="#010101" transform="translate(418,233)"/>
<path d="M0 0 C0.33 0 0.66 0 1 0 C1.39795584 15.73331012 1.69728903 31.46525264 1.88080692 47.20235252 C1.96830447 54.51047808 2.08745644 61.81546949 2.2824707 69.12158203 C2.45246615 75.49344104 2.56170825 81.86303097 2.59950441 88.23709452 C2.62159178 91.61052189 2.67303459 94.977462 2.79741096 98.34879684 C3.47130971 118.87233573 3.47130971 118.87233573 -0.64491463 124.08178711 C-4.63200449 127.46343496 -9.01751471 129.45773509 -13.90809536 131.20431042 C-17.01133867 132.38467893 -19.67601319 134.03171159 -22.50390625 135.765625 C-24.5229731 136.92789046 -26.54250752 138.08934402 -28.5625 139.25 C-35.36195947 143.15697497 -42.15065082 147.07869252 -48.8984375 151.07421875 C-49.99728271 151.72293945 -51.09612793 152.37166016 -52.22827148 153.04003906 C-54.32995696 154.2826636 -56.42855954 155.53052067 -58.52368164 156.78417969 C-59.93315063 157.6161084 -59.93315063 157.6161084 -61.37109375 158.46484375 C-62.6075061 159.20142212 -62.6075061 159.20142212 -63.86889648 159.95288086 C-66 161 -66 161 -69 161 C-69.1157986 147.2657607 -69.20466751 133.53163734 -69.25906086 119.79700947 C-69.28516568 113.4195921 -69.32058109 107.04250848 -69.37719727 100.6652832 C-69.43148365 94.51204837 -69.46141387 88.35913475 -69.47438622 82.20567894 C-69.48363202 79.85687388 -69.50168678 77.5080866 -69.52865028 75.15941811 C-69.56489427 71.87192277 -69.56994709 68.58575836 -69.56762695 65.2980957 C-69.58560333 64.3248938 -69.60357971 63.35169189 -69.62210083 62.34899902 C-69.58658944 57.70543565 -69.54531474 55.6899225 -66.58512878 51.94474792 C-62.36006823 48.76630753 -62.36006823 48.76630753 -60.125 47.375 C-54.47670137 43.72243355 -49.10547904 39.7197626 -43.69921875 35.72265625 C-40.64005411 33.46167039 -37.54287697 31.25965742 -34.4375 29.0625 C-29.44162192 25.44197526 -24.79246442 21.48257776 -20.140625 17.4375 C-16.63672664 14.39096891 -13.08705825 11.43544095 -9.4375 8.5625 C-6.04328976 5.88844292 -3.00268415 3.09954493 0 0 Z " fill="#A5A5A5" transform="translate(358,277)"/>
<path d="M0 0 C0.09260248 13.49077412 0.16371565 26.98147287 0.20724869 40.47249985 C0.22814037 46.73666341 0.2564874 53.00060985 0.30175781 59.26464844 C0.34515836 65.3076415 0.36912519 71.35042546 0.37950897 77.39356232 C0.38691069 79.70130964 0.40136418 82.00904528 0.42292023 84.3167038 C0.45187649 87.54439701 0.45595916 90.77122164 0.45410156 93.99902344 C0.46848267 94.95711914 0.48286377 95.91521484 0.49768066 96.90234375 C0.45722967 103.38028183 0.45722967 103.38028183 -1.85380554 106.51260376 C-4.50025568 108.34669664 -7.17011288 110.01295963 -9.97265625 111.6015625 C-10.53697861 111.92410004 -11.10130096 112.24663757 -11.682724 112.57894897 C-13.47259575 113.60039289 -15.26730061 114.61295424 -17.0625 115.625 C-19.42949323 116.96941411 -21.79470276 118.31693873 -24.16015625 119.6640625 C-25.20824463 120.25654785 -26.25633301 120.8490332 -27.33618164 121.45947266 C-29.26354772 122.57409826 -31.14747216 123.76498144 -33 125 C-37.35897965 124.69272645 -40.40760932 123.47764075 -44.1171875 121.234375 C-45.05433594 120.67363281 -45.99148437 120.11289062 -46.95703125 119.53515625 C-47.91996094 118.94605469 -48.88289063 118.35695313 -49.875 117.75 C-50.83019531 117.17636719 -51.78539062 116.60273438 -52.76953125 116.01171875 C-55.52142717 114.35454137 -58.26132361 112.67890553 -61 111 C-62.20897949 110.27393555 -62.20897949 110.27393555 -63.44238281 109.53320312 C-64.16522461 109.09427734 -64.88806641 108.65535156 -65.6328125 108.203125 C-66.2633252 107.82317383 -66.89383789 107.44322266 -67.54345703 107.05175781 C-69 106 -69 106 -70 104 C-70.09195619 101.78397356 -70.11750018 99.56509793 -70.11352539 97.34716797 C-70.11367142 96.66412598 -70.11381744 95.98108398 -70.1139679 95.27734375 C-70.11327023 93.0155929 -70.10548465 90.753924 -70.09765625 88.4921875 C-70.09579155 86.92562912 -70.09436789 85.35907016 -70.09336853 83.79251099 C-70.08954743 79.66610102 -70.0797206 75.53972616 -70.06866455 71.41333008 C-70.0584417 67.20394363 -70.05386903 62.99455153 -70.04882812 58.78515625 C-70.03809798 50.52342138 -70.02102642 42.26171505 -70 34 C-68.39801758 33.30620239 -68.39801758 33.30620239 -66.76367188 32.59838867 C-65.33199066 31.97584204 -63.90035232 31.35319678 -62.46875 30.73046875 C-61.4183252 30.27601379 -61.4183252 30.27601379 -60.34667969 29.81237793 C-54.30647924 27.18112433 -48.41163167 24.30737899 -42.546875 21.3046875 C-39.06959528 19.53446472 -35.57698122 17.7974974 -32.078125 16.0703125 C-17.78508886 9.03546489 -17.78508886 9.03546489 -3.9765625 1.109375 C-2 0 -2 0 0 0 Z " fill="#A5A5A5" transform="translate(254,354)"/>
<path d="M0 0 C22.77 0 45.54 0 69 0 C69.185625 10.6425 69.37125 21.285 69.5625 32.25 C69.62381104 35.60704102 69.68512207 38.96408203 69.74829102 42.42285156 C69.79225114 45.0787691 69.83581665 47.7346932 69.87890625 50.390625 C69.89227524 51.0792865 69.90564423 51.767948 69.91941833 52.47747803 C69.95848874 54.51126319 69.9902397 56.54518489 70.02172852 58.57910156 C70.04171402 59.72493713 70.06169952 60.87077271 70.08229065 62.05133057 C70.01077804 64.61379714 69.93718661 66.62266536 69 69 C66.7424078 70.41572472 64.6704097 71.4919396 62.25 72.5625 C61.51628174 72.89693115 60.78256348 73.2313623 60.02661133 73.57592773 C44.18510408 80.62172828 27.70610441 86.39534475 11.375 92.1875 C10.15043091 92.62461304 10.15043091 92.62461304 8.90112305 93.07055664 C5.81637934 94.14538606 3.29130888 95 0 95 C0 63.65 0 32.3 0 0 Z " fill="#A6A5A5" transform="translate(79,284)"/>
<path d="M0 0 C0.96674186 3.9743832 1.04657372 7.53337291 0.87890625 11.61328125 C0.83056641 12.86044922 0.78222656 14.10761719 0.73242188 15.39257812 C0.67634766 16.68615234 0.62027344 17.97972656 0.5625 19.3125 C0.51029297 20.62541016 0.45808594 21.93832031 0.40429688 23.29101562 C0.2748336 26.52759739 0.13987458 29.76385421 0 33 C-4.10385 32.39971025 -7.10656784 31.04349178 -10.7109375 29.015625 C-11.79117188 28.40976562 -12.87140625 27.80390625 -13.984375 27.1796875 C-15.10328125 26.54289062 -16.2221875 25.90609375 -17.375 25.25 C-18.48617187 24.62867188 -19.59734375 24.00734375 -20.7421875 23.3671875 C-26.39661826 20.176473 -31.81715885 16.91326911 -37 13 C-36 11 -36 11 -32.96484375 9.921875 C-31.62422643 9.52501294 -30.2816122 9.13485933 -28.9375 8.75 C-22.23711238 6.76106047 -15.72005198 4.47487241 -9.23022461 1.87988281 C-5.87064118 0.56726929 -3.67452297 0 0 0 Z " fill="#A6A3A3" transform="translate(148,404)"/>
<path d="M0 0 C0.33 0 0.66 0 1 0 C1.04669593 15.33346006 1.08197703 30.66691685 1.10362434 46.00043201 C1.11394219 53.1198597 1.1280122 60.23924323 1.15087891 67.35864258 C1.17292259 74.22506315 1.18455819 81.09143775 1.18975449 87.95789146 C1.19345914 90.58183198 1.20069306 93.20576989 1.21146011 95.82969093 C1.2259092 99.49564741 1.22798069 103.16141236 1.22705078 106.82739258 C1.23424133 107.9199939 1.24143188 109.01259521 1.24884033 110.13830566 C1.246091 111.13529984 1.24334167 112.13229401 1.24050903 113.15950012 C1.24235262 114.02690732 1.24419621 114.89431452 1.24609566 115.78800678 C1 118 1 118 -1 121 C-2.125 117.25 -2.125 117.25 -1 115 C-0.89591575 113.46717305 -0.85349641 111.92995831 -0.84178162 110.39364624 C-0.8319928 109.4232692 -0.82220398 108.45289215 -0.81211853 107.45310974 C-0.80636307 106.38496536 -0.8006076 105.31682098 -0.79467773 104.21630859 C-0.78477814 103.09435593 -0.77487854 101.97240326 -0.76467896 100.81645203 C-0.73299473 97.09380226 -0.70827916 93.37113972 -0.68359375 89.6484375 C-0.6630302 87.07296408 -0.6420339 84.49749408 -0.62062073 81.92202759 C-0.57099405 75.82702858 -0.5257448 69.73201135 -0.48259836 63.63696349 C-0.43323982 56.69868656 -0.37831658 49.76045721 -0.32291877 42.82222629 C-0.20907385 28.54819553 -0.10224028 14.27411835 0 0 Z " fill="#9C9999" transform="translate(253,173)"/>
<path d="M0 0 C1.2065625 0.0309375 1.2065625 0.0309375 2.4375 0.0625 C0.25038479 4.30807659 -2.62004065 7.25859881 -6.0390625 10.51171875 C-7.66163693 12.00429261 -7.66163693 12.00429261 -8.5625 14.0625 C-9.2225 14.0625 -9.8825 14.0625 -10.5625 14.0625 C-10.8207959 14.64676758 -11.0790918 15.23103516 -11.34521484 15.83300781 C-12.65923136 18.23966622 -14.08730015 19.81569337 -16.0390625 21.734375 C-16.709375 22.39824219 -17.3796875 23.06210938 -18.0703125 23.74609375 C-18.76898438 24.42800781 -19.46765625 25.10992187 -20.1875 25.8125 C-20.89390625 26.50988281 -21.6003125 27.20726562 -22.328125 27.92578125 C-24.06848703 29.64262488 -25.81334981 31.35461832 -27.5625 33.0625 C-28.2225 31.7425 -28.8825 30.4225 -29.5625 29.0625 C-27.9125 28.7325 -26.2625 28.4025 -24.5625 28.0625 C-24.5625 27.0725 -24.5625 26.0825 -24.5625 25.0625 C-23.5725 25.0625 -22.5825 25.0625 -21.5625 25.0625 C-21.5625 24.4025 -21.5625 23.7425 -21.5625 23.0625 C-20.9025 23.0625 -20.2425 23.0625 -19.5625 23.0625 C-20.2225 21.4125 -20.8825 19.7625 -21.5625 18.0625 C-20.5725 17.7325 -19.5825 17.4025 -18.5625 17.0625 C-17.5725 17.7225 -16.5825 18.3825 -15.5625 19.0625 C-15.5625 18.4025 -15.5625 17.7425 -15.5625 17.0625 C-14.9025 17.0625 -14.2425 17.0625 -13.5625 17.0625 C-13.8925 16.0725 -14.2225 15.0825 -14.5625 14.0625 C-14.2325 13.0725 -13.9025 12.0825 -13.5625 11.0625 C-11.9125 11.0625 -10.2625 11.0625 -8.5625 11.0625 C-8.459375 10.299375 -8.35625 9.53625 -8.25 8.75 C-7.51885961 5.89190576 -6.79298087 4.90507115 -4.5625 3.0625 C-3.9025 3.3925 -3.2425 3.7225 -2.5625 4.0625 C-2.8925 3.0725 -3.2225 2.0825 -3.5625 1.0625 C-2.5625 0.0625 -2.5625 0.0625 0 0 Z " fill="#D1181A" transform="translate(408.5625,223.9375)"/>
<path d="M0 0 C0.33 0 0.66 0 1 0 C1.375 2.1875 1.375 2.1875 1 5 C-0.82869674 7.08832653 -2.69052559 8.38336791 -5 10 C-5.66 10 -6.32 10 -7 10 C-7 10.66 -7 11.32 -7 12 C-7.99 12.495 -7.99 12.495 -9 13 C-9.0825 13.598125 -9.165 14.19625 -9.25 14.8125 C-10.40684535 18.18663227 -13.06154717 19.16346698 -16 21 C-16.33 21.66 -16.66 22.32 -17 23 C-17.99 23.33 -18.98 23.66 -20 24 C-21.01187895 25.65948148 -22.0126546 27.32580562 -23 29 C-23.66 29 -24.32 29 -25 29 C-25.103125 29.61875 -25.20625 30.2375 -25.3125 30.875 C-26 33 -26 33 -29 35 C-31.1875 34.625 -31.1875 34.625 -33 34 C-32.30962646 33.31486328 -31.61925293 32.62972656 -30.90795898 31.92382812 C-28.31287873 29.34704017 -25.72126708 26.76678638 -23.13061523 24.18554688 C-22.0153271 23.07524416 -20.89913789 21.96584571 -19.78198242 20.85742188 C-14.10412591 15.22279132 -8.46697863 9.61231633 -3.28930664 3.50585938 C-2.24711308 2.28861835 -1.13310263 1.13310263 0 0 Z " fill="#D42D2C" transform="translate(366,194)"/>
<path d="M0 0 C0.33 0 0.66 0 1 0 C1 2.64 1 5.28 1 8 C0.38125 7.814375 -0.2375 7.62875 -0.875 7.4375 C-3.04160178 6.76313824 -3.04160178 6.76313824 -5 8 C-6.13350534 10.01669827 -6.13350534 10.01669827 -7 12 C-7.99 11.67 -8.98 11.34 -10 11 C-10.33 11.99 -10.66 12.98 -11 14 C-11.763125 14.45375 -12.52625 14.9075 -13.3125 15.375 C-16.31639952 17.19131134 -17.94543592 19.18448626 -20 22 C-21.32 21.67 -22.64 21.34 -24 21 C-18.42896702 15.81812006 -12.90253139 10.77048464 -6.72265625 6.31640625 C-4.24455986 4.42271355 -2.16938205 2.2351209 0 0 Z " fill="#BC9493" transform="translate(358,277)"/>
<path d="M0 0 C2.97 0.495 2.97 0.495 6 1 C-6.45544554 16.48514851 -6.45544554 16.48514851 -14 19 C-14.33 18.34 -14.66 17.68 -15 17 C-14.34 17 -13.68 17 -13 17 C-13.33 16.01 -13.66 15.02 -14 14 C-12.02 13.01 -10.04 12.02 -8 11 C-8 10.34 -8 9.68 -8 9 C-6.35 9 -4.7 9 -3 9 C-3 8.01 -3 7.02 -3 6 C-2.01 6 -1.02 6 0 6 C0 5.34 0 4.68 0 4 C-0.33 3.67 -0.66 3.34 -1 3 C-0.67 2.01 -0.34 1.02 0 0 Z " fill="#D91B1E" transform="translate(371,259)"/>
<path d="M0 0 C0 0.66 0 1.32 0 2 C-0.66 2.66 -1.32 3.32 -2 4 C-3.32 4 -4.64 4 -6 4 C-5.67 4.99 -5.34 5.98 -5 7 C-8.465 8.485 -8.465 8.485 -12 10 C-12 10.99 -12 11.98 -12 13 C-13.051875 12.938125 -14.10375 12.87625 -15.1875 12.8125 C-19.20667184 13.01016419 -20.72569962 13.8483169 -24 16 C-24.66 15.67 -25.32 15.34 -26 15 C-22.93809574 13.06155731 -19.87537131 11.12441424 -16.8125 9.1875 C-15.51602539 8.36668945 -15.51602539 8.36668945 -14.19335938 7.52929688 C-11.79828599 6.01517003 -9.39972967 4.50673221 -7 3 C-6.01386719 2.37738281 -5.02773438 1.75476563 -4.01171875 1.11328125 C-2 0 -2 0 0 0 Z " fill="#D41B1C" transform="translate(431,81)"/>
<path d="M0 0 C0.99 0.66 1.98 1.32 3 2 C3 2.66 3 3.32 3 4 C-2.75 2.125 -2.75 2.125 -5 1 C-5.2578125 1.69609375 -5.515625 2.3921875 -5.78125 3.109375 C-7.13392624 6.31764557 -8.75049365 9.24025603 -10.5 12.25 C-11.1084375 13.30703125 -11.716875 14.3640625 -12.34375 15.453125 C-14 18 -14 18 -16 19 C-16 17.68 -16 16.36 -16 15 C-15.34 15 -14.68 15 -14 15 C-14 13.68 -14 12.36 -14 11 C-13.01 11 -12.02 11 -11 11 C-10.34 7.37 -9.68 3.74 -9 0 C-5.46627283 -1.17790906 -3.59454905 -0.82375082 0 0 Z " fill="#D0191E" transform="translate(475,141)"/>
<path d="M0 0 C0 0.99 0 1.98 0 3 C-0.99 3.66 -1.98 4.32 -3 5 C-4.01866229 6.65532623 -5.01810813 8.32260138 -6 10 C-7.4375 11.8125 -7.4375 11.8125 -9 13 C-10.32 13 -11.64 13 -13 13 C-13.33 13.99 -13.66 14.98 -14 16 C-14.99 16 -15.98 16 -17 16 C-17 16.66 -17 17.32 -17 18 C-18.65 18.33 -20.3 18.66 -22 19 C-18.68130771 15.59128894 -15.26631678 12.48406799 -11.5625 9.5 C-10.60859375 8.72785156 -9.6546875 7.95570313 -8.671875 7.16015625 C-7.79015625 6.44730469 -6.9084375 5.73445312 -6 5 C-3.99294758 3.34150057 -1.99573978 1.67210631 0 0 Z " fill="#D62828" transform="translate(313,247)"/>
<path d="M0 0 C2.64 0.33 5.28 0.66 8 1 C4.24467842 6.19967603 -0.21081646 9.32806914 -6 12 C-5.67 10.35 -5.34 8.7 -5 7 C-4.34 7 -3.68 7 -3 7 C-2.01 4.69 -1.02 2.38 0 0 Z " fill="#E01E20" transform="translate(323,299)"/>
<path d="M0 0 C-0.375 2.4375 -0.375 2.4375 -1 5 C-1.99 5.495 -1.99 5.495 -3 6 C-4.03145371 7.30915279 -5.03542166 8.64082143 -6 10 C-9 9 -9 9 -12 7 C-12 7.66 -12 8.32 -12 9 C-13.32 8.67 -14.64 8.34 -16 8 C-13.71125827 6.66141476 -11.41930344 5.32898986 -9.125 4 C-8.47402344 3.6184375 -7.82304687 3.236875 -7.15234375 2.84375 C-2.2265625 0 -2.2265625 0 0 0 Z " fill="#B39C9D" transform="translate(254,354)"/>
<path d="M0 0 C0.33 0.66 0.66 1.32 1 2 C-4 7 -4 7 -6.625 7.125 C-7.40875 7.08375 -8.1925 7.0425 -9 7 C-9.33 7.99 -9.66 8.98 -10 10 C-11.32 10 -12.64 10 -14 10 C-14 10.99 -14 11.98 -14 13 C-16.31 13.33 -18.62 13.66 -21 14 C-19.07243478 11.73227621 -17.00858336 10.36766512 -14.4375 8.9375 C-11.05436646 7.23356577 -11.05436646 7.23356577 -9 5 C-7.4770445 4.09282434 -5.93291765 3.22072673 -4.375 2.375 C-3.14910156 1.70597656 -3.14910156 1.70597656 -1.8984375 1.0234375 C-0.95871094 0.51683594 -0.95871094 0.51683594 0 0 Z " fill="#D01A1E" transform="translate(484,47)"/>
<path d="M0 0 C0.66 0.33 1.32 0.66 2 1 C-2.75 4 -2.75 4 -5 4 C-4.67 5.65 -4.34 7.3 -4 9 C-8.00200378 10.60080151 -11.04556236 9.29279692 -15 8 C-11.96943208 5.55831021 -8.90981404 3.86972611 -5.375 2.25 C-4.41335937 1.80140625 -3.45171875 1.3528125 -2.4609375 0.890625 C-1.64882812 0.59671875 -0.83671875 0.3028125 0 0 Z " fill="#D82527" transform="translate(155,349)"/>
<path d="M0 0 C-0.99 0.33 -1.98 0.66 -3 1 C-3 1.66 -3 2.32 -3 3 C-4 4.625 -4 4.625 -6 6 C-8.04908891 6.17075741 -10.01033993 6.1244125 -12.0625 6.0078125 C-14.22069385 5.89575878 -14.22069385 5.89575878 -17 7 C-17.99 6.34 -18.98 5.68 -20 5 C-17.04575985 3.96703956 -14.08605927 2.95073045 -11.125 1.9375 C-10.28324219 1.64294922 -9.44148438 1.34839844 -8.57421875 1.04492188 C-7.76855469 0.77099609 -6.96289062 0.49707031 -6.1328125 0.21484375 C-5.38918457 -0.04176025 -4.64555664 -0.29836426 -3.87939453 -0.56274414 C-2 -1 -2 -1 0 0 Z " fill="#DB2222" transform="translate(99,374)"/>
<path d="M0 0 C0.66 0.33 1.32 0.66 2 1 C1.67 2.32 1.34 3.64 1 5 C0.195625 5.12375 -0.60875 5.2475 -1.4375 5.375 C-2.7059375 5.684375 -2.7059375 5.684375 -4 6 C-4.33 6.66 -4.66 7.32 -5 8 C-6.97522846 9.04808041 -8.97481509 10.0520411 -11 11 C-11 11.66 -11 12.32 -11 13 C-13.31 13.66 -15.62 14.32 -18 15 C-14.31911357 11.15274582 -10.43814081 7.88614275 -6.1875 4.6875 C-5.59001953 4.23310547 -4.99253906 3.77871094 -4.37695312 3.31054688 C-2.92052412 2.20366083 -1.46062183 1.10134736 0 0 Z " fill="#C18789" transform="translate(316,311)"/>
<path d="M0 0 C0.99 0 1.98 0 3 0 C3 0.66 3 1.32 3 2 C0.23682377 3.37021794 -2.53658478 4.71830176 -5.3125 6.0625 C-6.49102539 6.64741211 -6.49102539 6.64741211 -7.69335938 7.24414062 C-8.45068359 7.60830078 -9.20800781 7.97246094 -9.98828125 8.34765625 C-10.68477783 8.68804932 -11.38127441 9.02844238 -12.09887695 9.37915039 C-14 10 -14 10 -17 9 C-16.67 8.01 -16.34 7.02 -16 6 C-13.36 6 -10.72 6 -8 6 C-8 5.34 -8 4.68 -8 4 C-5.36 3.34 -2.72 2.68 0 2 C0 1.34 0 0.68 0 0 Z " fill="#BC9795" transform="translate(145,351)"/>
<path d="M0 0 C-3.41084768 1.20469568 -6.82943733 2.38570092 -10.25 3.5625 C-11.70212891 4.07586914 -11.70212891 4.07586914 -13.18359375 4.59960938 C-14.58544922 5.07817383 -14.58544922 5.07817383 -16.015625 5.56640625 C-16.87446289 5.86490479 -17.73330078 6.16340332 -18.61816406 6.47094727 C-21.16586928 7.03684284 -22.56315454 6.85092276 -25 6 C-24.360625 5.71125 -23.72125 5.4225 -23.0625 5.125 C-20.84793921 4.17176549 -20.84793921 4.17176549 -20 2 C-19.030625 2.061875 -18.06125 2.12375 -17.0625 2.1875 C-13.04719282 2.22014477 -9.8110234 1.03637702 -6.11328125 -0.44140625 C-3.66560802 -1.08838827 -2.39381378 -0.68551118 0 0 Z " fill="#D32624" transform="translate(137,408)"/>
<path d="M0 0 C6.15234375 0.5859375 6.15234375 0.5859375 8 1 C8.33 1.66 8.66 2.32 9 3 C9.763125 3.12375 10.52625 3.2475 11.3125 3.375 C14.62549899 4.14546488 15.8715162 5.3985198 18 8 C18 8.66 18 9.32 18 10 C13.48548686 8.6510689 9.67722719 6.83381706 5.625 4.4375 C4.56539062 3.81746094 3.50578125 3.19742187 2.4140625 2.55859375 C1.61742187 2.04425781 0.82078125 1.52992188 0 1 C0 0.67 0 0.34 0 0 Z " fill="#C7171A" transform="translate(55,407)"/>
<path d="M0 0 C0 0.66 0 1.32 0 2 C-1.91411557 2.98414433 -3.8313967 3.96213349 -5.75 4.9375 C-7.35101563 5.75541016 -7.35101563 5.75541016 -8.984375 6.58984375 C-11.38445885 7.71216275 -13.41856752 8.50501659 -16 9 C-16 9.66 -16 10.32 -16 11 C-17.98 11 -19.96 11 -22 11 C-18.29827831 7.92815242 -14.15955301 5.93178248 -9.875 3.8125 C-9.14667969 3.44447266 -8.41835937 3.07644531 -7.66796875 2.69726562 C-2.25342069 0 -2.25342069 0 0 0 Z " fill="#CB282C" transform="translate(191,332)"/>
<path d="M0 0 C-2.31 0.33 -4.62 0.66 -7 1 C-7 1.66 -7 2.32 -7 3 C-8.98 3 -10.96 3 -13 3 C-12.34 4.65 -11.68 6.3 -11 8 C-15.75 6.125 -15.75 6.125 -18 5 C-18 4.34 -18 3.68 -18 3 C-15.75376301 2.30030318 -13.50283586 1.61564957 -11.25 0.9375 C-9.99703125 0.55464844 -8.7440625 0.17179687 -7.453125 -0.22265625 C-4.3261992 -0.92656828 -2.90533954 -1.16653785 0 0 Z " fill="#BC1E1F" transform="translate(51,390)"/>
<path d="M0 0 C0 2.33333333 0 4.66666667 0 7 C-3.93673644 5.68775452 -6.22719294 4.08089673 -9 1 C-5.57367167 -0.61798838 -3.61944899 -1.34053666 0 0 Z " fill="#AD9797" transform="translate(120,415)"/>
<path d="M0 0 C0 3.86661175 -1.13700022 4.67134959 -3.6875 7.5 C-4.71423828 8.66015625 -4.71423828 8.66015625 -5.76171875 9.84375 C-8.03065458 12.02953111 -10.26748261 13.45612767 -13 15 C-14.75149165 16.58245275 -14.75149165 16.58245275 -16 18 C-16.66 17.67 -17.32 17.34 -18 17 C-17.49025635 16.52054932 -16.9805127 16.04109863 -16.45532227 15.54711914 C-14.15756291 13.38574089 -11.86002856 11.22412359 -9.5625 9.0625 C-8.76005859 8.30775391 -7.95761719 7.55300781 -7.13085938 6.77539062 C-6.36708984 6.05673828 -5.60332031 5.33808594 -4.81640625 4.59765625 C-4.10943604 3.93258057 -3.40246582 3.26750488 -2.67407227 2.58227539 C-1.77353853 1.73112195 -0.87619153 0.87619153 0 0 Z " fill="#CF2C2D" transform="translate(332,229)"/>
<path d="M0 0 C0.66 0.33 1.32 0.66 2 1 C0.8125 2.5 0.8125 2.5 -1 4 C-3.6875 4.1875 -3.6875 4.1875 -6 4 C-6 4.66 -6 5.32 -6 6 C-9.22791555 8.1519437 -10.28400809 8.20086443 -14 8 C-14 8.66 -14 9.32 -14 10 C-15.65 10 -17.3 10 -19 10 C-16.00377807 7.57616952 -13.02486813 5.98205073 -9.5 4.4375 C-5.58651616 2.72146627 -5.58651616 2.72146627 -1.78125 0.78515625 C-1.1934375 0.52605469 -0.605625 0.26695312 0 0 Z " fill="#C58886" transform="translate(208,377)"/>
<path d="M0 0 C-6.87619244 2.93841629 -13.74839665 5.180206 -21 7 C-21 6.34 -21 5.68 -21 5 C-17.85471518 2.90314345 -15.58922097 2.28498324 -11.9375 1.4375 C-2.53802497 -0.76140749 -2.53802497 -0.76140749 0 0 Z " fill="#CB2424" transform="translate(159,400)"/>
<path d="M0 0 C1.65 0 3.3 0 5 0 C2.84485731 4.31028538 -4.23379631 5.7311566 -8.5625 7.25 C-9.366875 7.4975 -10.17125 7.745 -11 8 C-11 7.34 -11 6.68 -11 6 C-10.34 6 -9.68 6 -9 6 C-9 5.01 -9 4.02 -9 3 C-4.545 2.505 -4.545 2.505 0 2 C0 1.34 0 0.68 0 0 Z " fill="#D62225" transform="translate(203,377)"/>
<path d="M0 0 C0.125 5.75 0.125 5.75 -1 8 C-2.98 7.34 -4.96 6.68 -7 6 C-7 5.01 -7 4.02 -7 3 C-2.77777778 0 -2.77777778 0 0 0 Z " fill="#D61C23" transform="translate(405,97)"/>
<path d="M0 0 C1.32 0.33 2.64 0.66 4 1 C4 1.66 4 2.32 4 3 C-6.37357631 7.59225513 -6.37357631 7.59225513 -12 7 C-10.30820672 4.95780294 -9.36272334 4.08206694 -6.73828125 3.48828125 C-5.93777344 3.43027344 -5.13726562 3.37226562 -4.3125 3.3125 C-3.10013672 3.21388672 -3.10013672 3.21388672 -1.86328125 3.11328125 C-1.24839844 3.07589844 -0.63351562 3.03851563 0 3 C0 2.01 0 1.02 0 0 Z " fill="#E5171B" transform="translate(470,57)"/>
<path d="M0 0 C-2.33214148 1.20628008 -4.49642139 2.1654738 -7 3 C-7 3.66 -7 4.32 -7 5 C-7.99 5.33 -8.98 5.66 -10 6 C-10 5.34 -10 4.68 -10 4 C-11.98 4 -13.96 4 -16 4 C-13.40608858 2.59496465 -10.73026086 1.42294192 -8 0.3125 C-7.34 0.04050781 -6.68 -0.23148437 -6 -0.51171875 C-3.65456399 -1.08433496 -2.26562596 -0.75352292 0 0 Z " fill="#D31D1C" transform="translate(67,385)"/>
<path d="M0 0 C0.375 2.1875 0.375 2.1875 0 5 C-1.82869674 7.08832653 -3.69052559 8.38336791 -6 10 C-6.66 10 -7.32 10 -8 10 C-7.42259246 6.67990662 -6.42952445 5.06272039 -4 2.75 C-3.195625 1.96882812 -3.195625 1.96882812 -2.375 1.171875 C-1 0 -1 0 0 0 Z " fill="#DA1A1D" transform="translate(367,194)"/>
<path d="M0 0 C1.32 0 2.64 0 4 0 C4 0.66 4 1.32 4 2 C5.32 1.67 6.64 1.34 8 1 C8 1.66 8 2.32 8 3 C9.32 3 10.64 3 12 3 C12 3.99 12 4.98 12 6 C12.99 6 13.98 6 15 6 C15 6.66 15 7.32 15 8 C9.52067211 6.45454854 4.88570819 3.84456788 0 1 C0 0.67 0 0.34 0 0 Z " fill="#CB191D" transform="translate(404,105)"/>
<path d="M0 0 C3.78239671 0.65690619 7.21841526 1.720131 10.8125 3.0625 C11.78832031 3.42472656 12.76414062 3.78695313 13.76953125 4.16015625 C14.50558594 4.43730469 15.24164063 4.71445312 16 5 C13 7 13 7 10.8125 6.9375 C6.82496459 5.60832153 3.38342768 3.48509825 0 1 C0 0.67 0 0.34 0 0 Z " fill="#BF1A1E" transform="translate(73,417)"/>
<path d="M0 0 C0.625 1.875 0.625 1.875 1 4 C-2.30694282 7.30694282 -6.48189621 7.28121076 -11 8 C-7.72291137 4.32966073 -4.28477792 2.30718811 0 0 Z " fill="#D3191B" transform="translate(442,73)"/>
<path d="M0 0 C0.33 1.32 0.66 2.64 1 4 C0.01 4.495 0.01 4.495 -1 5 C-1.0825 5.61875 -1.165 6.2375 -1.25 6.875 C-2 9 -2 9 -5.0625 10.75 C-6.5165625 11.36875 -6.5165625 11.36875 -8 12 C-7.41463247 8.33939179 -5.916761 6.45464836 -3.4375 3.75 C-2.79683594 3.04359375 -2.15617187 2.3371875 -1.49609375 1.609375 C-0.75552734 0.81273437 -0.75552734 0.81273437 0 0 Z " fill="#D62525" transform="translate(358,202)"/>
<path d="M0 0 C1.32 0.66 2.64 1.32 4 2 C1.36 3.98 -1.28 5.96 -4 8 C-4 6.35 -4 4.7 -4 3 C-2 1.1875 -2 1.1875 0 0 Z " fill="#DF1D1C" transform="translate(337,291)"/>
<path d="M0 0 C0.33 0.66 0.66 1.32 1 2 C0.54625 2.433125 0.0925 2.86625 -0.375 3.3125 C-2.20024334 5.10798342 -2.20024334 5.10798342 -4 8 C-7.625 8.6875 -7.625 8.6875 -11 9 C-7.56638098 5.36440339 -4.2026393 2.63886654 0 0 Z " fill="#CE1E21" transform="translate(273,279)"/>
<path d="M0 0 C0.66 0.33 1.32 0.66 2 1 C-0.97 4.3 -3.94 7.6 -7 11 C-8.32 10.67 -9.64 10.34 -11 10 C-5.555 5.05 -5.555 5.05 0 0 Z " fill="#C88482" transform="translate(345,288)"/>
<path d="M0 0 C0.721875 0.12375 1.44375 0.2475 2.1875 0.375 C-0.98570782 3.91086014 -2.97993695 5.96078031 -7.8125 6.375 C-3.50480769 0.46730769 -3.50480769 0.46730769 0 0 Z " fill="#B79796" transform="translate(334.8125,298.625)"/>
<path d="M0 0 C1.32 0 2.64 0 4 0 C4.98410592 3.75749535 5.14124787 5.62569316 3.75 9.3125 C2 12 2 12 -1 13 C0.33333333 9.66666667 1.66666667 6.33333333 3 3 C2.01 2.01 1.02 1.02 0 0 Z " fill="#CB1C1F" transform="translate(419,113)"/>
<path d="M0 0 C-0.66 1.32 -1.32 2.64 -2 4 C-3.65 4 -5.3 4 -7 4 C-7 2.68 -7 1.36 -7 0 C-3.86650268 -1.04449911 -3.01031744 -0.93423645 0 0 Z " fill="#B39596" transform="translate(191,388)"/>
<path d="M0 0 C-1.45537568 0.83848804 -2.91440373 1.67063934 -4.375 2.5 C-5.59316406 3.19609375 -5.59316406 3.19609375 -6.8359375 3.90625 C-9 5 -9 5 -11 5 C-10.67 3.35 -10.34 1.7 -10 0 C-3.375 -1.125 -3.375 -1.125 0 0 Z " fill="#BD9893" transform="translate(195,330)"/>
<path d="M0 0 C-4.97504047 3.24900602 -7.88225104 4.49940808 -14 4 C-4.81927711 -2.12048193 -4.81927711 -2.12048193 0 0 Z " fill="#C68785" transform="translate(148,405)"/>
<path d="M0 0 C2.125 0.9375 2.125 0.9375 4 2 C3.67 2.66 3.34 3.32 3 4 C0.71484375 4.4140625 0.71484375 4.4140625 -2.0625 4.625 C-2.98160156 4.69976562 -3.90070313 4.77453125 -4.84765625 4.8515625 C-5.91306641 4.92503906 -5.91306641 4.92503906 -7 5 C-2.25 1.125 -2.25 1.125 0 0 Z " fill="#DE2025" transform="translate(211,320)"/>
<path d="M0 0 C-3.19668988 2.6486859 -6.39486597 4.93992341 -10 7 C-10 5.35 -10 3.7 -10 2 C-9.01 2.495 -9.01 2.495 -8 3 C-7.608125 2.505 -7.21625 2.01 -6.8125 1.5 C-4.44908285 -0.45593143 -2.98564997 -0.24207973 0 0 Z " fill="#BD9696" transform="translate(245,299)"/>
<path d="M0 0 C3 1 3 1 5 4 C3.02 5.32 1.04 6.64 -1 8 C-1.04241723 5.66705225 -1.04092937 3.33297433 -1 1 C-0.67 0.67 -0.34 0.34 0 0 Z " fill="#B1A19F" transform="translate(291,258)"/>
<path d="M0 0 C4.455 0.99 4.455 0.99 9 2 C5.31265242 4.45823172 2.30300029 5.01242616 -2 6 C-1.67 5.34 -1.34 4.68 -1 4 C-0.34 4 0.32 4 1 4 C0.67 2.68 0.34 1.36 0 0 Z " fill="#BC9A98" transform="translate(88,371)"/>
<path d="M0 0 C0.33 0.66 0.66 1.32 1 2 C-4 7 -4 7 -7.125 7.125 C-8.548125 7.063125 -8.548125 7.063125 -10 7 C-8.65868124 4.31736248 -7.061296 3.77928518 -4.4375 2.375 C-3.61121094 1.92898437 -2.78492188 1.48296875 -1.93359375 1.0234375 C-1.29550781 0.68570313 -0.65742188 0.34796875 0 0 Z " fill="#CB282A" transform="translate(484,47)"/>
<path d="M0 0 C0.33 0.66 0.66 1.32 1 2 C-0.32 3.32 -1.64 4.64 -3 6 C-2.67 6.99 -2.34 7.98 -2 9 C-3.65 9 -5.3 9 -7 9 C-6.875 6.75 -6.875 6.75 -6 4 C-2.9375 1.6875 -2.9375 1.6875 0 0 Z " fill="#B78A89" transform="translate(296,326)"/>
<path d="M0 0 C0 3.19610552 -0.54671542 4.41717626 -2 7.1875 C-2.37125 7.90292969 -2.7425 8.61835938 -3.125 9.35546875 C-3.558125 10.16951172 -3.558125 10.16951172 -4 11 C-4.66 10.67 -5.32 10.34 -6 10 C-6 6.41087588 -5.33563446 5.89142971 -3 3.3125 C-2.443125 2.68988281 -1.88625 2.06726563 -1.3125 1.42578125 C-0.879375 0.95527344 -0.44625 0.48476562 0 0 Z " fill="#D01D1E" transform="translate(381,176)"/>
<path d="M0 0 C0.99 0.33 1.98 0.66 3 1 C0.03 4.96 0.03 4.96 -3 9 C-4 5 -4 5 -3.1875 2.8125 C-2 1 -2 1 0 0 Z " fill="#D1191A" transform="translate(453,166)"/>
<path d="M0 0 C0 0.66 0 1.32 0 2 C-7.28571429 6.57142857 -7.28571429 6.57142857 -12 6 C-8.59780735 3.25207517 -4.51535412 0 0 0 Z " fill="#CA8487" transform="translate(230,367)"/>
<path d="M0 0 C1.98 0 3.96 0 6 0 C2.87511433 2.52394612 -0.31314387 4.39701907 -4 6 C-4.66 5.67 -5.32 5.34 -6 5 C-5.01 4.67 -4.02 4.34 -3 4 C-3 3.34 -3 2.68 -3 2 C-2.01 2 -1.02 2 0 2 C0 1.34 0 0.68 0 0 Z " fill="#D42328" transform="translate(230,363)"/>
<path d="M0 0 C-0.33 1.65 -0.66 3.3 -1 5 C-3.64 5 -6.28 5 -9 5 C-2.87096774 0 -2.87096774 0 0 0 Z " fill="#BD9492" transform="translate(254,354)"/>
<path d="M0 0 C1.11375 0.3403125 1.11375 0.3403125 2.25 0.6875 C-0.11292656 3.21338702 -1.41462511 4.57570837 -4.75 5.6875 C-4.75 5.0275 -4.75 4.3675 -4.75 3.6875 C-5.41 3.3575 -6.07 3.0275 -6.75 2.6875 C-4.29511132 0.41445492 -3.41240272 -0.38777304 0 0 Z " fill="#D51618" transform="translate(277.75,336.3125)"/>
<path d="M0 0 C1.65 0 3.3 0 5 0 C5 0.99 5 1.98 5 3 C4.34 3 3.68 3 3 3 C2.67 3.99 2.34 4.98 2 6 C1.34 6 0.68 6 0 6 C-1 3 -1 3 0 0 Z " fill="#E1141C" transform="translate(395,235)"/>
<path d="M0 0 C0.99 0.33 1.98 0.66 3 1 C4.66621616 1.03874921 6.33394172 1.0450286 8 1 C5.3144406 3.6855594 2.62378672 4.06049974 -1 5 C-1.33 4.01 -1.66 3.02 -2 2 C-1.34 2 -0.68 2 0 2 C0 1.34 0 0.68 0 0 Z " fill="#CE191C" transform="translate(161,394)"/>
<path d="M0 0 C-5.14285714 4.42857143 -5.14285714 4.42857143 -9 5 C-9 3.68 -9 2.36 -9 1 C-5.92677456 0.08941469 -3.19902639 -0.08886184 0 0 Z " fill="#BD9894" transform="translate(218,316)"/>
<path d="M0 0 C0.99 0.33 1.98 0.66 3 1 C-1.75 5 -1.75 5 -4 5 C-4 4.34 -4 3.68 -4 3 C-4.66 3 -5.32 3 -6 3 C-6 2.34 -6 1.68 -6 1 C-3.03 1.495 -3.03 1.495 0 2 C0 1.34 0 0.68 0 0 Z " fill="#D72420" transform="translate(300,321)"/>
<path d="M0 0 C0 0.99 0 1.98 0 3 C-1.32 3 -2.64 3 -4 3 C-4.33 3.99 -4.66 4.98 -5 6 C-6.32 5.67 -7.64 5.34 -9 5 C-7.87926138 4.16094435 -6.75325453 3.32892169 -5.625 2.5 C-4.99851563 2.0359375 -4.37203125 1.571875 -3.7265625 1.09375 C-2 0 -2 0 0 0 Z " fill="#D12B2B" transform="translate(245,300)"/>
<path d="M0 0 C1.32 0.33 2.64 0.66 4 1 C2.02 3.31 0.04 5.62 -2 8 C-2.33 6.68 -2.66 5.36 -3 4 C-2.01 4 -1.02 4 0 4 C0 2.68 0 1.36 0 0 Z " fill="#CB1716" transform="translate(420,209)"/>
<path d="M0 0 C1 2 1 2 0.375 4.4375 C-1.27706844 7.51635481 -2.91798591 8.45899296 -6 10 C-4.34832443 6.4213696 -2.21713508 3.25179812 0 0 Z " fill="#C51C20" transform="translate(407,141)"/>
<path d="M0 0 C-1.65 0.33 -3.3 0.66 -5 1 C-5 1.66 -5 2.32 -5 3 C-6.98 3 -8.96 3 -11 3 C-10 1 -10 1 -7.1875 -0.1875 C-4.14038924 -0.96421451 -2.86250637 -1.10096399 0 0 Z " fill="#380202" transform="translate(96,422)"/>
<path d="M0 0 C-5.29230769 4.06153846 -5.29230769 4.06153846 -8.875 3.75 C-9.57625 3.5025 -10.2775 3.255 -11 3 C-3.71428571 -1.85714286 -3.71428571 -1.85714286 0 0 Z " fill="#CD3535" transform="translate(90,377)"/>
<path d="M0 0 C1.4540625 0.0309375 1.4540625 0.0309375 2.9375 0.0625 C0.24908141 2.31495881 -1.70891875 3.94463958 -5.0625 5.0625 C-3.9375 0.08035714 -3.9375 0.08035714 0 0 Z " fill="#CD1B19" transform="translate(270.0625,341.9375)"/>
<path d="M0 0 C0.33 0.66 0.66 1.32 1 2 C0.21654285 3.17219543 -0.57702836 4.33763668 -1.375 5.5 C-1.81585938 6.1496875 -2.25671875 6.799375 -2.7109375 7.46875 C-3.13632812 7.9740625 -3.56171875 8.479375 -4 9 C-4.66 9 -5.32 9 -6 9 C-4.47291037 5.56404834 -2.40072955 2.88087546 0 0 Z " fill="#CB1C1E" transform="translate(373,185)"/>
<path d="M0 0 C0.33 0 0.66 0 1 0 C0.67 2.31 0.34 4.62 0 7 C-1.32 7 -2.64 7 -4 7 C-2.79618552 4.50638429 -1.54571278 2.31856917 0 0 Z " fill="#D3191D" transform="translate(390,164)"/>
<path d="M0 0 C0.66 0 1.32 0 2 0 C2.33 0.99 2.66 1.98 3 3 C1.02 3.99 -0.96 4.98 -3 6 C-1.125 1.125 -1.125 1.125 0 0 Z " fill="#9A9A9A" transform="translate(346,402)"/>
<path d="M0 0 C0.33 0.99 0.66 1.98 1 3 C1.66 3.33 2.32 3.66 3 4 C1.35 5.32 -0.3 6.64 -2 8 C-1.125 2.25 -1.125 2.25 0 0 Z " fill="#BE9393" transform="translate(323,232)"/>
<path d="" fill="#FFFFFF" transform="translate(0,0)"/>
<path d="" fill="#FFFFFF" transform="translate(0,0)"/>
<path d="" fill="#FFFFFF" transform="translate(0,0)"/>
<path d="" fill="#FFFFFF" transform="translate(0,0)"/>
<path d="" fill="#FFFFFF" transform="translate(0,0)"/>
<path d="" fill="#FFFFFF" transform="translate(0,0)"/>
<path d="" fill="#FFFFFF" transform="translate(0,0)"/>
<path d="" fill="#FFFFFF" transform="translate(0,0)"/>
<path d="" fill="#FFFFFF" transform="translate(0,0)"/>
<path d="" fill="#FFFFFF" transform="translate(0,0)"/>
<path d="" fill="#FFFFFF" transform="translate(0,0)"/>
<path d="" fill="#FFFFFF" transform="translate(0,0)"/>
<path d="" fill="#FFFFFF" transform="translate(0,0)"/>
<path d="" fill="#FFFFFF" transform="translate(0,0)"/>
<path d="" fill="#FFFFFF" transform="translate(0,0)"/>
<path d="" fill="#FFFFFF" transform="translate(0,0)"/>
<path d="" fill="#FFFFFF" transform="translate(0,0)"/>
<path d="" fill="#FFFFFF" transform="translate(0,0)"/>
<path d="" fill="#FFFFFF" transform="translate(0,0)"/>
<path d="" fill="#FFFFFF" transform="translate(0,0)"/>
<path d="" fill="#FFFFFF" transform="translate(0,0)"/>
<path d="" fill="#FFFFFF" transform="translate(0,0)"/>
<path d="" fill="#FFFFFF" transform="translate(0,0)"/>
<path d="" fill="#FFFFFF" transform="translate(0,0)"/>
<path d="" fill="#FFFFFF" transform="translate(0,0)"/>
<path d="" fill="#FFFFFF" transform="translate(0,0)"/>
<path d="" fill="#FFFFFF" transform="translate(0,0)"/>
<path d="" fill="#FFFFFF" transform="translate(0,0)"/>
<path d="" fill="#FFFFFF" transform="translate(0,0)"/>
<path d="" fill="#FFFFFF" transform="translate(0,0)"/>
<path d="" fill="#FFFFFF" transform="translate(0,0)"/>
<path d="" fill="#FFFFFF" transform="translate(0,0)"/>
<path d="" fill="#FFFFFF" transform="translate(0,0)"/>
<path d="" fill="#FFFFFF" transform="translate(0,0)"/>
<path d="" fill="#FFFFFF" transform="translate(0,0)"/>
<path d="" fill="#FFFFFF" transform="translate(0,0)"/>
<path d="" fill="#FFFFFF" transform="translate(0,0)"/>
<path d="" fill="#FFFFFF" transform="translate(0,0)"/>
<path d="" fill="#FFFFFF" transform="translate(0,0)"/>
<path d="" fill="#FFFFFF" transform="translate(0,0)"/>
<path d="" fill="#FFFFFF" transform="translate(0,0)"/>
<path d="" fill="#FFFFFF" transform="translate(0,0)"/>
<path d="" fill="#FFFFFF" transform="translate(0,0)"/>
<path d="" fill="#FFFFFF" transform="translate(0,0)"/>
<path d="" fill="#FFFFFF" transform="translate(0,0)"/>
<path d="" fill="#FFFFFF" transform="translate(0,0)"/>
<path d="" fill="#FFFFFF" transform="translate(0,0)"/>
</svg>
